<svg xmlns="http://www.w3.org/2000/svg" viewBox="0 0 1111 1024" version="1.1"><path d="M1039.14248047 383.42832031H962c0-120.85664062-97.71416016-221.14248047-218.57167969-221.14248047-56.57080078 0-110.57080078 23.14248047-151.71416015 61.71416016l-5.14248047 5.14248047c-20.57167969 20.57167969-54 20.57167969-74.57167969 0-2.57167969-2.57080078-2.57167969-5.14248047-5.14248047-5.14248047-41.14335937-38.57167969-95.14335938-61.71416016-151.71503906-61.71416016-118.28496094 0-216 100.28583984-216 221.14248047H62C62 218.85839844 195.71416016 85.14248047 357.71416016 85.14248047c72 0 138.85751953 25.71503906 192.85751953 72 54-46.28496094 120.85664062-72 192.85664062-72 162 0 295.71416016 133.71503906 295.71416016 298.28583984zM170 645.71416016c-12.85751953 0-23.14248047-5.14248047-30.85751953-15.42832032-2.57080078-5.14335938-7.71416016-10.28583984-10.28496094-15.42832031C85.14160156 545.42832031 62 465.71416016 62 383.42832031c0-20.57080078 18-38.57080078 38.57167969-38.57080078s38.57080078 18 38.57080078 38.57080078c0 66.85751953 18 131.14335937 54 187.71416016 2.57167969 5.14335938 5.14335938 7.71503906 7.71503906 12.85751953 12.85664062 18 7.71416016 41.14248047-10.28583984 54-5.14335938 5.14248047-12.85751953 7.71416016-20.57167969 7.71416016z m804.85751953-82.28583985c-5.14335938 0-10.28583984 0-12.85751953-2.57080078-20.57167969-7.71503906-30.85751953-30.85751953-20.57167969-48.85751953 15.42919922-41.14248047 23.14335938-84.85751953 23.14335938-128.57167969-2.57167969-20.57080078 15.42832031-38.57080078 36-38.57080078s38.57080078 18 38.57080078 38.57080078c0 54-10.28496094 108-30.85664063 156.85751953-5.14335938 15.42832031-18 23.14248047-33.42832031 23.14248047z m-424.28583984 388.28583985c-7.71416016 0-18-2.57167969-25.71416016-5.14248047-10.28583984-5.14335938-15.42919922-5.14335938-18-7.71416016C355.14160156 869.42832031 226.57167969 761.42832031 134 622.57167969c-12.85751953-18-7.71416016-41.14335937 10.28583984-54s41.14248047-7.71416016 54 10.28583984c84.85664062 126 203.14248047 226.28496094 342 290.57080078l2.57167969 2.57167969c2.57080078 0 2.57080078 2.57167969 7.71416016 2.57167969l12.85664062-5.14335938 46.28583985-23.14248047c18-10.28583984 41.14335937-2.57167969 51.42832031 15.42832032 10.28583984 18 2.57167969 41.14335937-15.42832031 51.42832031-18 10.28583984-36 18-51.42832032 25.71503906l-18 7.71416016c-7.71416016 5.14248047-18 5.14248047-25.71416015 5.14248047z m-5.14335938-74.57167969z m10.28583985 0zM974.85839844 782H717.71416016c-20.57167969 0-38.57167969-18-38.57167969-38.57167969s18-38.57080078 38.57167969-38.57080078h257.14335937c20.57080078 0 38.57080078 18 38.57080078 38.57080078s-18 38.57167969-38.57080078 38.57167969zM846.28583984 910.57167969c-20.57167969 0-38.57167969-18-38.57167968-38.57167969V614.85751953c0-20.57167969 18-38.57167969 38.57167968-38.57167969s38.57167969 18 38.57167969 38.57167969V872c0 20.57167969-18 38.57167969-38.57167969 38.57167969z" fill="#333333" p-id="7740"></path></svg>