<svg xmlns="http://www.w3.org/2000/svg" viewBox="0 0 1024 1024" version="1.1"><path d="M512 962C262.76855469 962 62 761.23144531 62 512S262.76855469 62 512 62s450 200.76855469 450 450-200.76855469 450-450 450z m0-830.76855469C302.00029297 131.23144531 131.23144531 301.99941406 131.23144531 512S301.99941406 892.76855469 512 892.76855469 892.76855469 722.00058594 892.76855469 512 722.00058594 131.23144531 512 131.23144531z m0 461.53740235c-18.46142578 0-34.61572266-16.15429688-34.61572266-34.61484375v-39.23085938c0-23.0765625 16.15429688-43.84599609 39.23085938-46.15400391 11.53828125-2.30800781 16.15429688-2.30800781 16.15429687-2.30800781 20.76855469-9.23027344 34.61484375-29.99970703 34.61484375-50.76914062 0-29.99970703-25.38457031-55.38427734-57.69140625-55.38427735s-57.69316406 25.38457031-57.69316406 55.38427735c0 18.46142578-16.15429688 34.61572266-34.61484375 34.61572265s-32.30859375-16.15429688-32.30859375-36.92285156c0-69.23144531 57.69316406-124.61572266 126.92373047-124.61572266S638.92285156 348.15429687 638.92285156 417.38574219c0 50.76914063-29.99970703 96.92314453-78.46171875 115.38457031-4.61425781 2.30712891-9.23027344 2.30712891-13.84541015 4.61513672v20.76855469c0 18.46230469-16.15429688 34.61572266-34.61572266 34.61572265z m-57.69228516 103.84628906a57.69228516 57.69228516 0 1 0 115.38457032 0 57.69228516 57.69228516 0 1 0-115.38457032 0z" fill="#333333" p-id="6387"></path></svg>