<svg xmlns="http://www.w3.org/2000/svg" viewBox="0 0 1092 1024" version="1.1"><path d="M882.00019531 962c33.99960937 0 59.99941406-25.99980469 59.99941407-60.00029297s-25.99980469-59.99941406-59.99941407-59.99941406-60.00029297 25.99980469-60.00029297 59.99941406S847.99970703 962 882.00019531 962zM788.00029297 821.99990234H370.00039062V742.00097656h417.99902344c50.00097656 0 92.00039063-38.00039062 100.00019532-88.00048828l42.00029296-327.99902344v-6.00029297c0-21.99990234-18-39.99990234-39.99990234-39.99990234H245.99990234l36 378-79.99980468 7.99980469-43.99980469-464.00097656H890c65.99970703 0 119.99970703 54 119.99970703 120.00058593v16.00048829l-41.99941406 327.99902343c-12.00058594 88.00048828-88.00048828 156.00058594-180 156.00058594zM281.99902344 962c-42.00029297 0-82.00019531-15.99960938-114.00029297-46.00019531-29.99970703-32.00009766-45.99931641-72-45.99931641-113.99941406s15.99960938-82.00019531 45.99931641-114.00029297c32.00097656-29.99970703 72-46.00019531 114.00029297-46.00019532s82.00019531 16.00048828 114.00029297 46.00019532c29.99970703 29.99970703 46.00019531 69.99960938 46.00019531 114.00029297s-16.00048828 81.99931641-46.00019531 113.99941406c-32.00097656 30.00058594-72 46.00019531-114.00029297 46.00019531z m0-240.00029297c-21.99990234 0-42.00029297 8.00068359-55.99951172 24.00029297-16.00048828 14.00009766-24.00029297 33.99960937-24.00029297 56.00039062s7.99980469 41.99941406 24.00029297 55.99951172c29.99970703 29.99970703 81.99931641 29.99970703 113.99941406 0 16.00048828-15.99960938 24.00029297-36 24.00029297-55.99951172s-7.99980469-42.00029297-24.00029297-56.00039062c-15.99960938-15.99960938-36-24.00029297-57.99902344-24.00029297z m-79.99980469-399.99902344c-20.00039062 0-36-14.00097656-39.99990234-34.00048828l-14.00097657-97.99980469c-1.99951172-28.00019531-21.99902344-48.00058594-45.9993164-48.00058593C80 141.99980469 62 123.99980469 62 102.00078125S80 62 101.99990234 62c65.99970703 0 118.00019531 51.99960938 126 119.99970703L242 275.99960938c3.99990234 22.00078125-11.99970703 42.00029297-33.99960937 46.00019531h-6.00029297z" fill="#333333" p-id="6061"></path></svg>