<svg xmlns="http://www.w3.org/2000/svg" viewBox="0 0 1024 1024" version="1.1"><path d="M331.99973633 473.42791865H203.42818232C126.28577744 473.42791865 62 409.14214121 62 331.99973633V203.42818232C62 126.28577744 126.28577744 62 203.42818232 62H331.99973633c77.14240489 0 141.42818232 64.28577744 141.42818232 141.42818232V331.99973633c0 77.14240489-64.28577744 141.42818232-141.42818232 141.42818232zM203.42818232 139.14240489c-35.99996484 0-64.28577744 28.2858126-64.28577744 64.28577743V331.99973633c0 35.99996484 28.2858126 64.28577744 64.28577744 64.28577744H331.99973633c35.99996484 0 64.28577744-28.2858126 64.28577744-64.28577744V203.42818232c0-35.99996484-28.2858126-64.28577744-64.28577744-64.28577744H203.42818232zM331.99973633 961.99912109H203.42818232C126.28577744 961.99912109 62 897.71334365 62 820.57093877V691.99938477c0-77.14240489 64.28577744-141.42818232 141.42818232-141.42818233H331.99973633c77.14240489 0 141.42818232 64.28577744 141.42818232 141.42818233v128.571554c0 77.14240489-64.28577744 141.42818232-141.42818232 141.42818232zM203.42818232 627.71360732c-35.99996484 0-64.28577744 28.2858126-64.28577744 64.28577745v128.571554c0 35.99996484 28.2858126 64.28577744 64.28577744 64.28577744H331.99973633c35.99996484 0 64.28577744-28.2858126 64.28577744-64.28577744V691.99938477c0-35.99996484-28.2858126-64.28577744-64.28577744-64.28577745H203.42818232z m552.85697989-154.28568867c-113.14324864 0-205.71395888-92.57071026-205.71395977-205.71395977S643.14103378 62 756.28516221 62 961.99912109 154.57158916 961.99912109 267.71395888 869.42753193 473.42791865 756.28516221 473.42791865z m0-334.28551376c-71.99992969 0-128.57155401 56.57162432-128.57155489 128.57155399s56.57162432 128.57155401 128.57155489 128.57155489 128.57155401-56.57162432 128.571554-128.57155489S828.2850919 139.14240489 756.28516221 139.14240489zM820.57093877 961.99912109H691.99938477c-77.14240489 0-141.42818232-64.28577744-141.42818233-141.42818232V691.99938477c0-77.14240489 64.28577744-141.42818232 141.42818233-141.42818233h128.571554c77.14240489 0 141.42818232 64.28577744 141.42818232 141.42818233v128.571554C961.99912109 897.71334365 897.71334365 961.99912109 820.57093877 961.99912109zM691.99938477 627.71360732c-35.99996484 0-64.28577744 28.2858126-64.28577745 64.28577745v128.571554c0 35.99996484 28.2858126 64.28577744 64.28577745 64.28577744h128.571554c35.99996484 0 64.28577744-28.2858126 64.28577744-64.28577744V691.99938477c0-35.99996484-28.2858126-64.28577744-64.28577744-64.28577745H691.99938477z" fill="#333333" p-id="7848"></path></svg>