<svg xmlns="http://www.w3.org/2000/svg" viewBox="0 0 1024 1024" version="1.1"><path d="M512 962c-119.99970703 0-232.49970703-47.49960937-317.49960937-132.50039063C109.49960937 744.50058594 62 632.00058594 62 512c0-119.99970703 47.49960937-232.49970703 132.50039063-317.49960937C279.49941406 109.49960937 391.99941406 62 512 62c119.99970703 0 232.49970703 47.49960937 317.49960937 132.50039063C914.50039063 279.49941406 962 391.99941406 962 512s-47.49960937 232.49970703-132.50039063 317.49960937C744.50058594 914.50039063 632.00058594 962 512 962z m0-825.00029297c-100.00019531 0-195.00029297 39.99990234-264.99990234 110.00039063S136.99970703 411.99980469 136.99970703 512s39.99990234 195.00029297 110.00039063 264.99990234S411.99980469 887.00029297 512 887.00029297s195.00029297-39.99990234 264.99990234-110.00039063S887.00029297 612.00019531 887.00029297 512 847.00039063 316.99970703 776.99902344 247.00009766 612.00019531 136.99970703 512 136.99970703z" fill="#333333" p-id="7306"></path></svg>