<svg xmlns="http://www.w3.org/2000/svg" viewBox="0 0 1024 1024" version="1.1"><path d="M512 62C264.5 62 62 264.5 62 512s202.5 450 450 450 450-202.5 450-450S759.5 62 512 62z m247.5 325.00019531C747.00019531 397.00039062 589.50019531 501.99980469 477.00019531 669.5c0 0 0 2.49960937-2.50048828 2.49960937-7.49970703 5.00097656-42.49951172 32.50019531-77.49931641-7.49970703-35.00068359-45-55.00019531-87.49951172-125.00068359-124.99980468-2.49960937 0-2.49960937-2.50048828-2.49960937-2.50048828-7.49970703-9.99931641-34.99980469-49.99921875 17.49990234-49.99921875 39.99990234 0 79.99980469 9.99931641 142.49970703 64.99951171 5.00097656 5.00009766 12.50068359 5.00009766 15.00029297 0C474.49970703 517.00097656 596.99990234 384.49970703 737 342.00019531c0 0 17.49990234-2.50048828 27.50009766 12.49980469 5.00009766 10.00019531 10.00019531 20.00039062-5.00009766 32.50019531z" fill="#333333" p-id="7036"></path></svg>