<svg xmlns="http://www.w3.org/2000/svg" viewBox="0 0 1024 1024" version="1.1"><path d="M181.3334375 501.333125c58.666875 0 117.3328125 16.0003125 208.0003125 96 7.9996875 5.334375 18.665625 5.334375 24 0 45.3328125-50.66625 223.9996875-245.3334375 426.665625-309.3328125 0 0 26.6671875-5.334375 40.0003125 18.665625 8.000625 16.0003125 18.6665625 32.000625-5.3334375 50.6671875-21.3328125 16.0003125-247.9996875 168-413.3325 413.334375l-2.6671875 2.66625c-10.666875 7.9996875-64.0003125 48-112.0003125-13.3340625-53.3325-66.665625-79.9996875-130.6659375-183.999375-183.999375-2.6671875 0-2.6671875-2.6671875-5.334375-5.334375-10.6659375-10.6659375-50.66625-69.3328125 24-69.3328125z" fill="#333333" p-id="7252"></path></svg>