<svg xmlns="http://www.w3.org/2000/svg" viewBox="0 0 1024 1024" version="1.1"><path d="M512 962C262.76855469 962 62 761.23144531 62 512S262.76855469 62 512 62s450 200.76855469 450 450-200.76855469 450-450 450z m0-830.76855469C302.00029297 131.23144531 131.23144531 301.99941406 131.23144531 512S301.99941406 892.76855469 512 892.76855469 892.76855469 722.00058594 892.76855469 512 722.00058594 131.23144531 512 131.23144531zM673.53857422 569.69140625H488.9234375c-18.46230469 0-34.61572266-16.15429688-34.61572266-34.61572266s16.15429688-34.61484375 34.61572266-34.61484375h184.61425781c18.46230469 0 34.61572266 16.15429688 34.61572266 34.61484375s-16.15341797 34.61572266-34.61484375 34.61572266z m-184.61513672 0c-18.46230469 0-34.61572266-16.15429688-34.61572266-34.61572266v-184.61425781c0-18.46230469 16.15429688-34.61572266 34.61572266-34.61572265s34.61484375 16.15341797 34.61484375 34.61484375v184.61513671c0 18.46230469-16.15429688 34.61572266-34.61484375 34.61572266z" fill="#333333" p-id="7414"></path></svg>