<svg xmlns="http://www.w3.org/2000/svg" viewBox="0 0 1024 1024" version="1.1"><path d="M730.33349609 832.00009766H290.33369141c-116.66689453 0-213.33339844-96.66650391-213.33339844-213.33339844V275.33339844C77.00029297 158.66738281 173.66679687 62 290.33369141 62h443.33261718c116.66689453 0 213.33339844 96.66650391 213.33339844 213.33339844v346.66699219c-3.3328125 116.66601563-96.66650391 209.99970703-216.66621094 209.99970703zM290.33369141 162.00019531c-63.33398438 0-113.33408203 50.00009766-113.33408203 113.33320313v346.66699219c0 63.33310547 50.00097656 113.33320312 113.33408203 113.33320312h443.33261718c60.00029297 0 113.33408203-50.00097656 113.33408204-113.33320312v-346.66699219c0-63.33398438-50.00097656-113.33320312-113.33408204-113.33320313H290.33369141z m49.99921875 779.99941407c-13.33300781 0-26.66601563-3.3328125-36.66621094-13.33300782-20.00039062-19.99951172-20.00039062-50.00009766 0-69.99960937l96.66650391-96.66738281c20.00039062-19.99951172 50.00009766-19.99951172 70.00048828 0s19.99951172 50.00097656 0 70.00048828L373.66630859 928.66660156c-6.66650391 6.66650391-19.99951172 13.33300781-33.33339843 13.33300781z m170.00068359-349.99980469c-39.99990234 0-80.00068359-19.99951172-103.33300781-50.00009766-16.66757812-23.33320313-13.33388672-53.33291016 6.6665039-69.99960937 23.33320313-16.66669922 53.33291016-13.33300781 69.99960938 6.6665039 13.33300781 16.66669922 39.99990234 16.66669922 50.00009766 0 16.66669922-19.99951172 50.00009766-26.66601563 69.99960937-6.6665039s26.66689453 50.00009766 6.66650391 69.99960937c-19.99951172 33.33339844-59.99941406 50.00097656-99.99931641 50.00097656z" fill="#333333" p-id="8010"></path></svg>