<svg xmlns="http://www.w3.org/2000/svg" viewBox="0 0 1024 1024" version="1.1"><path d="M823.466667 268.8C725.333333 268.8 682.666667 140.8 682.666667 128c0-25.6-17.066667-42.666667-42.666667-42.666667h-51.2c-25.6 0-42.666667 17.066667-42.666667 42.666667v558.933333c0 89.6-72.533333 166.4-166.4 166.4S213.333333 780.8 213.333333 686.933333s72.533333-166.4 166.4-166.4h93.866667c25.6 0 42.666667-17.066667 42.666667-42.666666s-17.066667-42.666667-42.666667-42.666667H379.733333c-136.533333 0-251.733333 110.933333-251.733333 251.733333S238.933333 938.666667 379.733333 938.666667s251.733333-110.933333 251.733334-251.733334V226.133333c34.133333 64 98.133333 123.733333 192 123.733334 25.6 0 42.666667-17.066667 42.666666-42.666667s-21.333333-38.4-42.666666-38.4z" fill="#2c2c2c" p-id="9002"></path></svg>