<svg xmlns="http://www.w3.org/2000/svg" viewBox="0 0 1024 1024" version="1.1"><path d="M512.1249998 62C263.92500019 62 62 263.8750001 62 512s201.9250002 450 450.1249998 450C760.175 962 962 760.1249999 962 512S760.175 62 512.1249998 62z m0 852.22500029C290.25000019 914.22500029 109.7500001 733.74999981 109.7500001 512c0-221.77500029 180.5000001-402.1999998 402.35000009-402.1999998 221.7250002 0 402.09999961 180.42500039 402.09999961 402.1999998 0 221.77500029-180.37500029 402.22500029-402.09999961 402.22500029z" fill="#2c2c2c" p-id="9272"></path><path d="M737 400.69999971v-19.0749999a127.7499999 127.7499999 0 0 1-66.2500002-18.69999961 13.02500039 13.02500039 0 0 0-2.62499941-2.4000003 106.67499961 106.67499961 0 0 1-39.27500068-42.00000029 128.8000002 128.8000002 0 0 1-12.84999961-34.65h-0.5000001A111.9250002 111.9250002 0 0 1 613.54999971 262.00000039h-88.82499991c0 41.5749999 0.15000029 83.14999981-0.19999951 124.72499971v217.67500019a71.75000039 71.75000039 0 0 1-34.9250001 60.19999981 75.375 75.375 0 0 1-73.9249998 2.52500009 90.3999999 90.3999999 0 0 1-22.5-17.8999998 67.5 67.5 0 0 1-16.95000059-37.07500078 71.55 71.55 0 0 1 7.59999991-41.1249999c3.97500029-7.44999961 9.45-14.05000019 16.07500019-19.4000001a91.14999961 91.14999961 0 0 1 37.69999981-17.52499951 64.32500039 64.32500039 0 0 1 35.00000068 1.0249998V492.2500001c0-8.3750001 0.24999961-16.7749998-0.20000039-25.00000049-0.2750001-6.72500039 0-13.42500029 0-20.14999981a166.29999961 166.29999961 0 0 0-107.4999999 21.8750001 161.7249999 161.7249999 0 0 0-54.0500001 52.49999971c-44.62499971 70.875-24.9249999 163.24999981 45 211.07500049l1.19999971 1.00000019a162.5000001 162.5000001 0 0 0 58.85000068 24.75c14.97499981 2.9750001 30.25000019 4.15000019 45.54999932 3.5499999a152.3750001 152.3750001 0 0 0 84.20000009-27.75000058 164.8249998 164.8249998 0 0 0 45.7750002-50.0749998c13.60000019-22.4499999 21.75000029-47.62500029 23.7499998-73.575 0.55000019-7.07500019 0.24999961-14.1249999 0.20000039-21.2000001-0.3999999-52.9999998-0.5749998-106.0250001-0.55000019-159.04999951A214.17500039 214.17500039 0 0 0 737 467.45v-66.75000029z" fill="#2c2c2c" p-id="9273"></path></svg>