<svg xmlns="http://www.w3.org/2000/svg" viewBox="0 0 1024 1024" version="1.1"><path d="M512 962C263.99990234 962 62 760.00009766 62 512S263.99990234 62 512 62s450 201.99990234 450 450-201.99990234 450-450 450z m0-839.99970703C296 122.00029297 122.00029297 296 122.00029297 512S296 901.99970703 512 901.99970703 901.99970703 728 901.99970703 512 728 122.00029297 512 122.00029297z m97.99980469 248.00009765c12.00058594-12.00058594 30.00058594-12.00058594 42.00029297 0 10.00019531 9.99931641 11.99970703 27.99931641 1.99951171 39.99902344l-1.99951171 2.00039063-97.99980469 97.99980468 97.99980469 98.0006836c11.99970703 11.99970703 11.99970703 29.99970703 0 41.99941406-11.99970703 12.00058594-29.99970703 12.00058594-42.00029297 0L512 551.99990234 414.00019531 649.99970703c-10.00019531 10.00019531-28.00019531 12.00058594-39.99990234 2.00039063l-2.00039063-2.00039063c-10.00019531-9.99931641-11.99970703-27.99931641-1.99951171-39.99902344l1.99951171-2.00039062 97.99980469-98.00068359-97.99980469-97.99980469c-11.99970703-11.99970703-11.99970703-29.99970703 0-41.99941406s29.99970703-12.00058594 42.00029297 0L512 468.00019531l97.99980469-97.99980469z" fill="#333333" p-id="6928"></path></svg>