<svg xmlns="http://www.w3.org/2000/svg" viewBox="0 0 1024 1024" version="1.1"><path d="M906.08837891 142.39970703a37.50029297 37.50029297 0 1 1-38.75097657 64.20058594c-83.57519531-50.45009766-155.12431641-69.60058594-277.72470703-69.60058594-47.49960937 0-104.32441406 8.85058594-139.29960937 22.44990234a37.50029297 37.50029297 0 0 1-27.17578125-69.89941406C467.61347656 72.24980469 533.43916016 62 589.63818359 62c135.97558594 0 220.95087891 22.74960937 316.45019532 80.39970703z m-399.04980469 511.17539063a37.575 37.575 0 0 1 14.97480469-50.87548829 37.30078125 37.30078125 0 0 1 50.67421875 15.02578125c3.70019531 6.84931641 52.90048828 129.49980469 57.00058593 140.99941407 1.49941406 4.20029297 2.99970703 8.72490234 4.64941407 13.67578125 2.57519531 7.74931641 9.77519531 30.59912109 10.62597656 33.14970703 16.29931641 49.05 56.42402344 81.45 103.12470703 81.45 59.64960937 0 102.02431641-43.50058594 101.39941406-107.70029297-0.14941406-13.79970703-2.90039063-30.15-14.74980469-91.64970703l-2.54970703-13.5c-9.50097656-50.25058594-13.84980469-80.97539063-13.5-105.85019531 0.27509766-19.55039063 1.82460938-26.49990234 15.32460938-79.37490235 5.12490234-20.07509766 8.12548828-33.42480469 10.24980469-46.65058594a191.99970703 191.99970703 0 0 0 2.75097656-30.27480468C847.01269531 332.17578125 745.31181641 287 585.4625 287c-157.37519531 0-261.52558594 57.57539062-261.52558594 140.625 0 82.30078125 116.62558594 159.37470703 261.52558594 159.37470703 20.62441406 0 37.35 16.80029297 37.35 37.50029297s-16.72558594 37.50029297-37.35 37.50029297c-181.20058594 0-336.25019531-102.47519531-336.25019531-234.37529297 0-136.55039063 143.1-215.62470703 336.25019531-215.62470703 196.57441406 0 336.24931641 62.04990234 336.24931641 199.99951172 0 13.37519531-1.27441406 27.30058594-3.67470704 42.24990234-2.57519531 15.95039063-6.00029297 31.17480469-11.64990234 53.30039063-11.17529297 43.75019531-12.825 51.24990234-12.97529297 61.80029296-0.24960937 18 3.65009766 45.72421875 12.17548828 90.82441407l2.54970703 13.25039062c13.29960937 69.19980469 15.85019531 84.39960938 16.07519532 105.12509766C925.21337891 884.25019531 849.51318359 962 748.08828125 962c-80.57548828 0-147.99990234-54.42539062-174.00058594-132.75-1.09951172-3.22558594-8.325-26.15009766-10.6743164-33.27539063a565.59990234 565.59990234 0 0 0-4.12558594-12.04980468 9717.525 9717.525 0 0 0-52.25009766-130.35058594zM334.8125 119.94980469a37.50029297 37.50029297 0 1 1-46.20058594 59.10029297c-12.39960938-9.70048828-34.14990234-17.05078125-51.89941406-17.05078125-37.00019531 0-62.50078125 25.62539062-62.50078125 60.25078125 0 15.09960938 12.17548828 33.69990234 31.30048828 44.79960937a37.50029297 37.50029297 0 1 1-37.59960937 64.90019531C126.86328125 308.15 99.21289062 265.85 99.21289062 222.25097656c0-75.99990234 59.05019531-135.25048828 137.50048829-135.25048828 34.32480469 0 72.37441406 12.84960938 98.1 32.95019531z" fill="#333333" p-id="7198"></path></svg>