<svg xmlns="http://www.w3.org/2000/svg" viewBox="0 0 1144 1024" version="1.1"><path d="M1032.41181641 252.21728516a295.78271484 295.78271484 0 0 0-64.72089844-94.18183594 300.73271484 300.73271484 0 0 0-95.55820313-63.13183594 301.79091797 301.79091797 0 0 0-116.47089843-23.08271484c-56.0390625 0-110.75273438 15.35273437-158.29453125 44.36455078a295.04355469 295.04355469 0 0 0-32.42636719 22.87001953 296.49726563 296.49726563 0 0 0-32.42636719-22.87001953 303.77636719 303.77636719 0 0 0-158.29365234-44.39091797c-40.39453125 0-79.51816406 7.72910156-116.47089844 23.08183594a300.09726562 300.09726562 0 0 0-95.55908203 63.13183593A293.95546875 293.95546875 0 0 0 73.56728516 368.07910156c0 37.87998047 7.75634766 77.34726562 23.10908203 117.52998047 12.83818359 33.53818359 31.26269531 68.34638672 54.79453125 103.5 37.32363281 55.58818359 88.62363281 113.61181641 152.3118164 172.40273438 105.56455078 97.49091797 210.09638672 164.83271484 214.51728516 167.55908203l26.97363281 17.28457031a36.52910156 36.52910156 0 0 0 39.22910156 0l26.94726563-17.28457031c4.44726563-2.85908203 108.87363281-70.06816406 214.51728516-167.55908203 63.71542969-58.79091797 114.98818359-116.81542969 152.3118164-172.42910157 23.55908203-35.12724609 42.08818359-69.93544922 54.79453125-103.5 15.37910156-40.15634766 23.10908203-79.62363281 23.10908203-117.50361328a289.58818359 289.58818359 0 0 0-23.77089843-115.88818359z" fill="#333333" p-id="7794"></path></svg>