<svg xmlns="http://www.w3.org/2000/svg" viewBox="0 0 1090 1024" version="1.1"><path d="M921.09130859 171.09072266H102.90869141C81.09072266 171.09072266 62 152 62 130.18203125S81.09072266 89.27246094 102.90869141 89.27246094h818.18261718c21.81796875 0 40.90869141 19.09160156 40.90869141 40.90957031s-19.09072266 40.90869141-40.90869141 40.90869141z m0 763.6368164H102.90869141C81.09072266 934.72753906 62 915.6359375 62 893.81796875s19.09072266-40.90869141 40.90869141-40.90869141h818.18261718c21.81796875 0 40.90869141 19.09072266 40.90869141 40.90869141s-19.09072266 40.90957031-40.90869141 40.90957031z m0-381.81884765H375.6359375c-21.81796875 0-40.90869141-19.08984375-40.90869141-40.90869141s19.09072266-40.90869141 40.90869141-40.90869141h545.45537109c21.81796875 0 40.90869141 19.08984375 40.90869141 40.90869141s-19.09072266 40.90869141-40.90869141 40.90869141z" fill="#333333" p-id="7522"></path></svg>