<svg xmlns="http://www.w3.org/2000/svg" viewBox="0 0 1024 1024" version="1.1"><path d="M341.33333333 832h-56.26666666l257.06666666-257.06666666a34.13333333 34.13333333 0 0 0 6.70933334-38.752l-68.17066667-149.20533334 97.35466667-259.60533333A34.13333333 34.13333333 0 0 0 546.13333333 81.06666667H102.4a68.34133333 68.34133333 0 0 0-68.26666667 68.26666667v682.66666666a68.34133333 68.34133333 0 0 0 68.26666667 68.26666667h238.93333333a34.13333333 34.13333333 0 0 0 0-68.26666667z m155.54133334-682.66666666L411.73333333 376.27733334a34.13333333 34.13333333 0 0 0 0.90666667 26.16533333l64.39466667 141.00266667L374.4 646.13333334 321.33333333 593.06666667a68.34133333 68.34133333 0 0 0-96.53333333 0L102.4 715.46666667V149.33333334zM102.4 812l170.66666667-170.66666666L326.13333333 694.4l-137.6 137.6H102.4zM273.06666667 422.4a102.4 102.4 0 1 0-102.4-102.4 102.51733333 102.51733333 0 0 0 102.4 102.4z m0-136.53333333a34.13333333 34.13333333 0 1 1-34.13333334 34.13333333 34.13333333 34.13333333 0 0 1 34.13333334-34.13333333z m648.53333333-136.53333333H682.66666667a34.13333333 34.13333333 0 0 0-31.69066667 21.46133333l-68.26666667 170.66666667a34.13333333 34.13333333 0 1 0 63.38133334 25.344L705.77066667 217.6H921.6v429.6L798.13333333 523.73333334a68.26666667 68.26666667 0 0 0-96.53333333 0L630.4 594.95466667a34.13333333 34.13333333 0 0 0-4.26666667 43.17866667l14.69866667 22.03733333L450.56 913.92A34.13333333 34.13333333 0 0 0 477.86666667 968.53333334h443.73333333a68.34133333 68.34133333 0 0 0 68.26666667-68.26666667V217.6a68.34133333 68.34133333 0 0 0-68.26666667-68.26666666zM546.13333333 900.26666667l163.84-218.45333333a34.13333333 34.13333333 0 0 0 1.06666667-39.46666667l-12.64-18.95466667L749.86666667 572l171.73333333 171.73333334V900.26666667z" fill="#2c2c2c" p-id="8335"></path></svg>