<svg xmlns="http://www.w3.org/2000/svg" viewBox="0 0 1024 1024" version="1.1"><path d="M876.08888889 948.90666667H147.91111111a72.89742222 72.89742222 0 0 1-72.81777778-72.81777778V147.91111111a72.89742222 72.89742222 0 0 1 72.81777778-72.81777778h728.17777778a72.89742222 72.89742222 0 0 1 72.81777778 72.81777778v728.17777778a72.89742222 72.89742222 0 0 1-72.81777778 72.81777778z m-533.33333334-72.81777778H876.08888889V709.16551111l-183.18222222-183.18222222zM147.91111111 854.75555555V876.08888889h91.87555556l146.77333333-146.77333334L329.95555555 672.71111111zM147.91111111 147.91111111v603.87555556L278.47111111 621.22666667a72.89742222 72.89742222 0 0 1 102.96888889 0L438.04444445 677.83111111 641.42222222 474.45333333a72.81777778 72.81777778 0 0 1 102.96888889 0L876.08888889 606.17386667V147.91111111z m182.04444444 291.27111111a109.22666667 109.22666667 0 1 1 109.22666667-109.22666667 109.35182222 109.35182222 0 0 1-109.22666667 109.22666667z m0-145.63555555a36.40888889 36.40888889 0 1 0 36.4088889 36.40888888 36.40888889 36.40888889 0 0 0-36.4088889-36.40888888z" fill="#2c2c2c" p-id="8281"></path></svg>