<svg xmlns="http://www.w3.org/2000/svg" viewBox="0 0 1024 1024" version="1.1"><path d="M512 962C263.99990234 962 62 760.00009766 62 512S263.99990234 62 512 62s450 201.99990234 450 450-201.99990234 450-450 450z m0-839.99970703C296 122.00029297 122.00029297 296 122.00029297 512S296 901.99970703 512 901.99970703 901.99970703 728 901.99970703 512 728 122.00029297 512 122.00029297z m28.00019531 331.99980469c15.99960938 0 29.99970703 14.00009766 29.99970703 29.99970703 0 2.00039063 0 14.00097656-1.99951171 16.00048828l-30.00058594 171.9993164h25.99980469c16.00048828 0 30.00058594 14.00097656 30.00058593 30.00058594s-14.00097656 29.99970703-30.00058593 29.99970703h-79.99980469c-15.99960938 0-29.99970703-14.00009766-29.99970703-29.99970703v-18L483.99980469 512H458c-15.99960938 0-29.99970703-14.00009766-29.99970703-29.99970703s14.00009766-30.00058594 29.99970703-30.00058594h82.00019531z m-30.00058593-182.00039063c34.00048828 0 60.00029297 26.00068359 60.00029296 60.00029297s-25.99980469 60.00029297-60.00029296 60.00029297-59.99941406-26.00068359-59.99941407-60.00029297 25.99980469-60.00029297 59.99941407-60.00029297z" fill="#333333" p-id="6495"></path></svg>