<svg xmlns="http://www.w3.org/2000/svg" viewBox="0 0 1024 1024" version="1.1"><path d="M775.99971555 413.85642667v-51.51971556h-192.8954311v51.64828444h81.98371555v49.21571556c0 9.05557333-1.59971555 13.63171555-4.73543111 16.384s-7.96785778 4.19157333-14.336 4.32014222v15.32814222c16.57628445-0.54385778 28.672-4.096 36.38385778-10.81571555 7.64814222-6.656 11.52-16.896 11.52-30.65628445v-43.74414222h82.08042666v-0.16042666zM748.19242667 397.91957333h-137.24785778v-19.51971555h137.24785778v19.51971555zM694.016 323.23242667h-28.95985778v12.12757333h-88.99242667v16.06428445h206.97543112v-16.06428445h-88.99242667l-0.03185778-12.12757333zM576.06371555 498.75171555h16.41585778c35.072-30.55957333 44.19242667-74.14442667 44.19242667-74.14442666h-31.64842667c-3.80814222 30.81557333-16.80042667 56.80014222-28.95985778 74.14442666v0 0zM722.40014222 424.60842667c0 0 9.15228445 43.58371555 44.19242667 74.14442666h16.41585778c-12.12757333-17.34428445-25.11985778-43.32771555-28.99171556-74.14442666h-31.61543111zM813.40757333 498.75171555h16.44771556c35.072-30.55957333 44.19242667-74.14442667 44.19242666-74.14442666h-31.64842666c-3.87185778 30.81557333-16.83228445 56.80014222-28.99171556 74.14442666v0 0zM959.744 424.60842667c0 0 9.15228445 43.58371555 44.19242667 74.14442666h16.44771555c-12.16056889-17.34428445-25.15171555-43.32771555-28.99171555-74.14442666h-31.64842667zM886.20828445 335.36l5.632-12.22428445h-28.99171556l-5.69571556 12.22428445h-43.776v16.06428445h36.25642667l-29.184 62.52771555h83.968v49.21571555c0 9.50385778-1.56785778 13.63171555-4.70357333 16.384-3.16757333 2.75228445-7.96785778 4.19157333-14.336 4.32014223v15.32814222c16.54442667-0.54385778 28.672-4.096 36.38385778-10.81571555 7.68-6.656 11.52-16.92785778 11.52-30.65628445v-43.776h80.00056888v-16.06428445h-80.00056888v-34.56h-28.83242667v34.56h-47.104l21.44028444-46.46456888h141.59985778v-16.06428445h-134.17585778zM455.19985778 367.872c-36.63985778-32.12856889-90.46357333-48.384-159.87143111-48.384h-81.82442667v384.99214222h81.82442667c69.40785778 0 123.32828445-16.28842667 159.87143111-48.32028444 36.41571555-31.87143111 55.61571555-81.69585778 55.61571555-144.09614223-0.03185778-62.464-19.23185778-112.41585778-55.61571555-144.19171555M413.184 614.912c-24.44856889 22.33571555-61.696 33.72828445-110.72056889 33.72828445h-28.44785778v-272.99157334h28.44785778c49.02456889 0 86.30385778 11.35957333 110.72056889 33.59971556 24.00028445 21.82371555 36.63985778 57.344 36.63985778 102.88014222-0.03185778 45.40757333-12.63957333 80.896-36.63985778 102.78343111v0 0zM107.64856889 551.77557333c0 25.344-1.69642667 43.20028445-5.05628444 53.08757334-3.13571555 9.37642667-8.60842667 17.24757333-16.15985778 23.23228444-9.15228445 7.00757333-20.35143111 12.16056889-33.21628445 15.45557334-12.57585778 3.20056889-28.35228445 4.864-46.78428444 5.02442666h-6.43185778v55.77614222h6.144c1.40856889 0.09557333 2.52814222 0 2.97642667 0 53.44028445 0 95.32757333-11.35957333 121.24842666-33.56785778 26.52842667-22.784 39.96785778-57.21543111 39.96785778-102.62414222v-248.576h-62.65628444l-0.03185778 232.192zM778.30371555 547.74442667c-42.40042667 0-76.89557333 34.46442667-76.89557333 76.86371555s34.49628445 76.89557333 76.89557333 76.89557333 76.89557333-34.49628445 76.89557334-76.89557333-34.49628445-76.86371555-76.89557334-76.86371555M778.30371555 678.46371555c-29.66414222 0-53.82371555-24.19256889-53.82371555-53.85557333 0-29.696 24.12771555-53.85557333 53.82371555-53.85557333 29.696 0 53.82371555 24.15957333 53.82371556 53.85557333s-24.12771555 53.85557333-53.82371556 53.85557333v0 0zM527.80828445 644.51242667c-8.12828445 0-14.72056889 6.59228445-14.7205689 14.75242666 0 8.12828445 6.59228445 14.72056889 14.7205689 14.72056889s14.72056889-6.59228445 14.72056888-14.72056889c0.03185778-8.16014222-6.59228445-14.75242667-14.72056888-14.75242666v0 0zM999.99971555 552.25571555l-51.84056888 97.15143112-51.84056889-97.15256889h-23.96842667v144.80042667h22.72028444v-97.76014223l53.05571556 95.77585778 53.05571556-95.80771555v97.792h22.81585778v-144.83228445l-24.00028445 0.03185778zM683.68042667 664.92757333c-9.85656889 8.67214222-22.49614222 13.53614222-35.61585778 13.53614222-29.66414222 0-53.82371555-24.12771555-53.82371556-53.85557333 0-29.66414222 24.12771555-53.79185778 53.82371556-53.79185777 13.11971555 0 25.79228445 4.76842667 35.64771556 13.53614222l1.792 1.536 16.32028444-16.28842667-2.01614222-1.82385778c-14.17557333-12.92743111-32.57571555-20.06357333-51.74385778-20.06357333-42.40042667 0-76.86371555 34.49628445-76.86371556 76.86371556 0 42.43228445 34.49628445 76.86371555 76.86371556 76.86371555 19.16814222 0 37.56828445-7.13614222 51.77571556-20.03171555l1.92056888-1.82385778-16.25543111-16.28842667-1.82385777 1.63157333zM683.68042667 664.92757333z" fill="#2c2c2c" p-id="8673"></path></svg>