<svg xmlns="http://www.w3.org/2000/svg" viewBox="0 0 1465 1024" version="1.1"><path d="M223.9712 238.42133333l-7.50933333 5.12v535.552h19.79733333c12.288 0 22.528-2.048 27.30666667-5.46133333l7.50933333-5.12v-174.08c0-95.57333333 1.024-173.73866667 2.73066667-173.73866667 1.36533333 0 9.89866667 12.97066667 18.77333333 28.672 20.48 35.49866667 29.01333333 40.27733333 52.56533333 28.672 8.53333333-4.096 16.04266667-8.87466667 16.72533334-10.24 2.73066667-4.43733333-43.008-80.896-50.51733334-84.992-7.168-3.75466667-23.552-2.73066667-34.13333333 2.048-5.80266667 2.38933333-6.144-2.38933333-6.144-74.752v-77.14133333h-19.79733333c-12.288 0-22.528 2.048-27.30666667 5.46133333z" fill="#2c2c2c" p-id="8785"></path><path d="M491.2352 241.49333333c-7.50933333 7.168-8.53333333 11.264-8.53333333 30.72v22.18666667h-54.61333334c-66.56 0-68.26666667 0.68266667-68.26666666 35.84v22.18666667h122.88v163.84h-71.68c-72.02133333 0-72.02133333 0-80.21333334 8.53333333-7.168 6.82666667-8.53333333 11.60533333-8.53333333 29.01333333v20.48h154.28266667l-2.048 9.216c-4.43733333 18.432-25.94133333 57.68533333-41.30133334 75.09333334-16.384 18.77333333-58.368 43.008-82.26133333 47.44533333-18.432 3.41333333-25.25866667 15.01866667-25.25866667 43.008v23.21066667l9.55733334-2.048c41.984-9.55733333 64.85333333-17.408 96.93866666-34.47466667 42.32533333-22.18666667 68.26666667-56.32 88.74666667-117.07733333 5.46133333-17.06666667 10.92266667-30.37866667 11.60533333-29.696 0.68266667 0.68266667 5.12 14.336 9.89866667 30.72 17.06666667 59.392 45.73866667 101.03466667 84.992 124.928 18.77333333 11.264 64.85333333 28.33066667 86.69866667 32.42666666l10.92266666 2.048v-22.528c0-12.288-1.70666667-25.25866667-3.41333333-29.01333333-2.048-3.41333333-17.74933333-13.312-35.15733333-21.16266667-17.408-8.192-37.20533333-19.79733333-44.032-25.94133333-17.06666667-14.67733333-35.15733333-43.34933333-45.39733334-70.31466667-14.67733333-38.22933333-18.432-35.84 55.63733334-35.84 79.53066667 0 79.18933333 0 79.18933333-34.47466666v-23.552h-40.61866667l-1.024-82.944c-1.024-77.824-1.36533333-83.28533333-8.53333333-96.93866667-10.58133333-19.11466667-29.35466667-34.13333333-49.49333333-38.57066667-9.216-1.70666667-33.45066667-3.41333333-53.93066667-3.41333333h-37.54666667v-61.44h-20.48c-17.408 0-22.18666667 1.36533333-29.01333333 8.53333333zM616.84586667 356.18133333c16.384 7.50933333 17.74933333 13.65333333 18.77333333 89.088l1.024 70.99733334h-95.91466667v-163.84h34.13333334c18.432 0 37.54666667 1.70666667 41.984 3.75466666zM1288.58986667 239.7856c-7.85066667 6.48533333-13.99466667 6.82666667-224.256 6.82666667-252.24533333 0-230.05866667-3.75466667-230.05866667 37.54666666v23.89333334h245.76v102.4h-104.10666667c-122.88 0-117.76-1.70666667-117.76 35.84v22.18666666h221.86666667v95.57333334h-262.48533333l-6.82666667 8.87466666c-5.46133333 6.82666667-7.168 13.99466667-7.168 29.01333334v20.13866666h276.48v35.84c0 59.73333333-4.096 63.14666667-76.45866667 63.14666667-29.01333333 0-52.90666667 1.70666667-57.68533333 3.75466667-10.92266667 5.12-16.04266667 16.72533333-16.04266667 37.20533333v17.06666667h72.704c68.608 0 73.38666667-0.34133333 89.42933334-8.192 35.49866667-16.384 46.08-40.96 46.08-106.83733334v-41.984h110.93333333c130.73066667 0 124.58666667 1.70666667 124.58666667-35.84v-22.18666666h-235.52v-95.57333334h85.33333333c101.71733333 0 98.98666667 1.024 98.98666667-35.84v-22.18666666h-184.32v-102.4h75.09333333c84.30933333 0 91.136-1.36533333 113.664-23.21066667 10.92266667-10.58133333 22.86933333-36.18133333 22.86933333-49.152 0-1.36533333-11.94666667-2.73066667-26.28266666-2.73066667-21.504 0.34133333-28.33066667 1.70666667-34.816 6.82666667zM148.87786667 363.34933333c-10.24 5.12-12.62933333 16.384-19.11466667 89.77066667-3.072 33.792-6.48533333 64.85333333-7.50933333 68.94933333-1.36533333 7.168-0.34133333 7.85066667 15.36 7.85066667 23.89333333 0 33.792-5.46133333 37.888-20.13866667 1.70666667-6.82666667 5.80266667-39.936 8.53333333-73.728 3.072-33.792 6.144-64.85333333 7.168-69.29066666 1.36533333-7.168 0.34133333-7.50933333-16.384-7.168-9.89866667 0-21.504 1.70666667-25.94133333 3.75466666z" fill="#2c2c2c" p-id="8786"></path></svg>