<svg xmlns="http://www.w3.org/2000/svg" viewBox="0 0 1024 1024" version="1.1"><path d="M768.421647 532.961882a120.470588 120.470588 0 0 1 120.470588 120.470589v180.705882a120.470588 120.470588 0 0 1-120.470588 120.470588h-301.176471a120.470588 120.470588 0 0 1-120.109176-111.073882l-118.422588 78.908235a60.235294 60.235294 0 0 1-93.605647-50.176v-256.963765a60.235294 60.235294 0 0 1 93.605647-50.115764l118.422588 78.908235a120.470588 120.470588 0 0 1 120.109176-111.134118h301.176471z m0 60.235294h-301.176471a60.235294 60.235294 0 0 0-59.813647 53.248l-0.421647 6.987295v180.705882a60.235294 60.235294 0 0 0 53.248 59.873882l6.987294 0.361412h301.176471a60.235294 60.235294 0 0 0 59.873882-53.187765l0.361412-7.047529v-180.705882a60.235294 60.235294 0 0 0-53.187765-59.813647l-7.047529-0.421648z m-573.078588 22.106353v256.963765l150.949647-100.47247v-55.958589l-150.949647-100.532706z m163.779765-508.928A210.823529 210.823529 0 0 1 550.671059 228.894118a165.647059 165.647059 0 1 1-12.649412 199.981176 210.823529 210.823529 0 1 1-178.778353-322.56z m0 60.235295a150.588235 150.588235 0 1 0 0 301.17647 150.588235 150.588235 0 0 0 0-301.17647z m316.777411 65.174588a105.411765 105.411765 0 1 0 0 210.823529 105.411765 105.411765 0 0 0 0-210.823529z" fill="#2c2c2c" p-id="9110"></path></svg>