<svg xmlns="http://www.w3.org/2000/svg" viewBox="0 0 1024 1024" version="1.1"><path d="M520.665 64.564a29.244 29.244 0 0 0-7.071-0.894c-16.211 0-29.35 13.14-29.35 29.35 0 15.83 12.538 28.696 28.223 29.293v0.073c0.375 0 0.751-0.014 1.127-0.014 216.493 0 389.629 173.942 389.629 390.433 0 216.496-173.136 388.827-389.63 388.827s-389.63-172.333-389.63-388.829c0-0.27 0.01-0.536 0.01-0.804h-0.01c0-16.209-13.141-29.35-29.35-29.35s-29.35 13.139-29.35 29.35c0 0.055 0.007 0.11 0.007 0.164-0.001 0.214-0.007 0.425-0.007 0.64 0 247.609 200.722 448.331 448.33 448.331 247.607 0 448.33-200.722 448.33-448.33-0.002-245.242-196.917-444.456-441.258-448.24z" fill="#333333" p-id="8389"></path></svg>