<svg xmlns="http://www.w3.org/2000/svg" viewBox="0 0 1024 1024" version="1.1"><path d="M512 915.84599609C290.46113281 915.84599609 108.15400391 733.53886719 108.15400391 512S290.46113281 108.15400391 512 108.15400391 915.84599609 290.46113281 915.84599609 512 733.53886719 915.84599609 512 915.84599609z m0-738.46142578c-184.61513672 0-334.61542969 150.00029297-334.61542969 334.61542969S327.38574219 846.61542969 512 846.61542969 846.61542969 696.61425781 846.61542969 512 696.61425781 177.38457031 512 177.38457031z m0 507.69228516c-94.61513672 0-173.07685547-78.46171875-173.07685547-173.07685547S417.38486328 338.92314453 512 338.92314453 685.07685547 417.38486328 685.07685547 512 606.61513672 685.07685547 512 685.07685547z m0-276.92314453c-57.69228516 0-103.84628906 46.15400391-103.84628906 103.84628906S454.30859375 615.84628906 512 615.84628906 615.84628906 569.69140625 615.84628906 512 569.69140625 408.15371094 512 408.15371094z m0-184.61513672c-18.46142578 0-34.61572266-16.15429688-34.61572266-34.61572266V96.61572266C477.38427734 78.15341797 493.53857422 62 512 62s34.61572266 16.15429688 34.61572266 34.61572266V188.92285156c0 18.46142578-16.15429688 34.61572266-34.61572266 34.61572266zM512 962c-18.46142578 0-34.61572266-16.15429688-34.61572266-34.61572266V835.07714844c0-18.46142578 16.15429688-34.61572266 34.61572266-34.61572266s34.61572266 16.15429688 34.61572266 34.61572266v92.3071289c0 18.46230469-16.15429688 34.61572266-34.61572266 34.61572266z m415.38427734-415.38427734H835.07714844c-18.46142578 0-34.61572266-16.15429688-34.61572266-34.61572266s16.15429688-34.61572266 34.61572266-34.61572266h92.3071289c18.46230469 0 34.61572266 16.15429688 34.61572266 34.61572266s-16.15429688 34.61572266-34.61572266 34.61572266z m-738.46142578 0H96.61572266C78.15341797 546.61572266 62 530.46142578 62 512s16.15429688-34.61572266 34.61572266-34.61572266H188.92285156c18.46142578 0 34.61572266 16.15429688 34.61572266 34.61572266s-16.15429688 34.61572266-34.61572266 34.61572266z" fill="#333333" p-id="6603"></path></svg>