<svg xmlns="http://www.w3.org/2000/svg" viewBox="0 0 1024 1024" version="1.1"><path d="M833.08115234 962c-4.86474609 0-12.16230469 0-17.02705078-2.4328125L682.27050781 925.51308594c-9.72949219 4.865625-19.45898438 7.29755859-24.32460937 9.72949219-46.21640625 14.59511719-94.86474609 24.32460937-145.94589844 24.32460937C263.89179687 959.5671875 62 757.67539062 62 512 62 263.89179687 263.89179687 62 512 62s450 201.89179687 450 447.5671875c0 75.40576172-19.45898438 148.37871094-53.51308594 214.05410156-2.4328125 7.29755859-7.29755859 14.59511719-14.59511718 24.32460938l12.16230468 133.78359375c2.4328125 19.45898438-4.86474609 38.91884766-17.02705078 53.51396484-12.16230469 14.59423828-29.18847656 24.32373047-48.64833984 26.75654297h-7.2975586zM679.83769531 852.54101563c4.86474609 0 7.29755859 0 12.16230469 2.43193359l143.51308594 36.48691406-14.59423828-141.08203125c0-9.72949219 2.4328125-21.89091797 7.29755859-31.62128906 7.29667969-12.16230469 12.16230469-21.89179688 17.02705078-26.75654297 29.18847656-53.51308594 46.21640625-116.75654297 46.21640625-180 0-206.75654297-170.27050781-374.59423828-377.02705078-374.59423828S134.97294922 302.81064453 134.97294922 509.5671875 305.24345703 884.16230469 512 884.16230469c41.35166016 0 82.70244141-7.29755859 121.62128906-19.45898438 7.29755859-2.4328125 14.59511719-4.865625 26.75742188-9.73037109 7.29667969-2.4328125 12.16142578-2.4328125 19.45898437-2.4328125zM514.4328125 657.94501953c-19.45986328 0-36.48691406-17.02705078-36.48691406-36.48603515V400.10644531c0-19.45898438 17.02705078-36.48603516 36.48691406-36.48603515s36.48603516 17.02705078 36.48603516 36.48691406V621.45898438c0 21.89179688-17.02705078 36.48603516-36.48603516 36.48603515zM512 655.51308594c-7.29755859 0-14.59423828-2.43193359-21.89179688-7.29667969l-104.59511718-77.83769531c-17.02617187-12.16230469-19.45898438-34.05410156-7.29667969-51.08203125 12.16230469-17.02617187 34.05410156-19.45898438 51.08115234-7.29667969l104.59423829 77.83769531c17.02705078 12.16230469 19.45898438 34.05410156 7.29755859 51.08203125-7.29755859 9.72949219-19.45898438 14.59335938-29.18935547 14.59335938z m4.86474609 0c-12.16230469 0-21.89179688-4.86474609-29.18847656-14.59423828-12.16318359-17.02705078-7.29755859-38.91884766 7.29667969-51.08115235L599.5671875 512c17.02705078-12.16230469 38.91972656-7.29755859 51.08203125 7.29755859 12.16142578 17.02705078 7.29667969 38.91796875-7.29755859 51.08115235l-104.59511719 77.83769531c-7.29667969 4.86474609-14.59423828 7.29667969-21.89179688 7.29667969z" fill="#333333" p-id="6333"></path></svg>