<svg xmlns="http://www.w3.org/2000/svg" viewBox="0 0 1024 1024" version="1.1"><path d="M512 75.09306641C271.70175781 75.09306641 75.09306641 271.70175781 75.09306641 512S271.70175781 948.90693359 512 948.90693359 948.90693359 752.29824219 948.90693359 512 752.29824219 75.09306641 512 75.09306641z m182.04433594 567.97910156c14.56347656 14.56347656 14.56347656 36.40869141 0 50.97216797s-36.40869141 14.56347656-50.97216797 0L512 562.97304688l-131.07128906 131.07128906c-14.56347656 14.56347656-36.40957031 14.56347656-50.97304688 0s-14.56347656-36.40869141 0-50.97216797L461.02695312 512l-131.07128906-131.07128906c-14.56347656-14.56347656-14.56347656-36.40957031 0-50.97304688s36.40869141-14.56347656 50.97216797 0L512 461.02695312l131.07128906-131.07128906c14.56347656-14.56347656 36.40957031-14.56347656 50.97304688 0s14.56347656 36.40869141 0 50.97216797L562.97304688 512l131.07128906 131.07128906z" fill="#333333" p-id="6279"></path></svg>