<svg xmlns="http://www.w3.org/2000/svg" viewBox="0 0 1024 1024" version="1.1"><path d="M835.07714844 962c-4.61601563 0-11.53828125 0-16.15429688-2.30800781L682.76884766 925.07714844c-11.53828125 4.61513672-18.46142578 6.92314453-25.38457032 9.23027344-46.153125 16.15429688-94.61425781 23.07744141-145.38427734 23.0774414C262.76855469 959.69199219 62 758.9234375 62 509.69199219S262.76855469 62 512 62s450 200.76855469 450 447.69199219c0 73.84570313-18.46142578 150.00029297-55.38427734 214.61572265-2.30800781 6.92314453-9.23115234 13.84628906-16.15429688 25.38457032l13.84628906 133.84599609c2.30800781 18.46142578-4.61513672 36.92285156-16.15429687 50.76914062-11.53828125 13.84628906-27.69169922 23.07744141-48.46113281 25.38457032 0 2.30800781-2.30800781 2.30800781-4.61513672 2.30800781z m-145.38515625-39.23085937z m-9.23027344-66.9225586c4.61513672 0 6.92314453 0 11.53828125 2.30712891l143.07714844 34.61572265-11.53828125-143.07714843c0-9.23115234 2.30712891-20.76855469 6.92226562-29.99970703 6.92314453-11.53916016 13.84628906-20.76943359 16.15429688-27.69257813 29.99970703-55.38427734 46.15400391-117.69257812 46.1540039-182.30800781C892.76855469 302.00029297 721.99970703 131.23144531 512 131.23144531S131.23144531 302.00029297 131.23144531 509.69199219C131.23144531 719.69257812 301.99941406 888.15429688 512 888.15429688c41.53886719 0 83.07685547-6.92226562 122.30771484-20.76855469 6.92314453-2.30800781 16.15429688-6.92314453 27.69257813-11.53828125 6.92314453 2.30712891 11.53828125 0 18.46142578 0zM512 708.15341797c-34.61572266 0-69.23144531-11.53828125-92.30800781-32.30683594-13.84541016-11.53916016-16.15429688-34.61572266-2.30712891-48.46201172 11.53828125-13.84628906 34.61484375-16.15429688 48.46113281-2.30800781 20.76855469 18.46230469 71.53857422 18.46230469 92.30800782 0 13.84628906-11.53828125 36.92285156-11.53828125 48.46113281 4.61601563 11.53828125 13.84628906 11.53828125 36.92285156-4.61513672 48.46113281-20.76855469 18.46142578-55.38427734 29.99970703-90 29.99970703z" fill="#333333" p-id="7090"></path></svg>