<svg xmlns="http://www.w3.org/2000/svg" viewBox="0 0 1024 1024" version="1.1"><path d="M885.63623047 438.36347656c-38.18144531 0-70.90927734 32.72783203-70.90927734 70.90927735s32.72783203 70.90927734 70.91015625 70.90927734c38.18144531 0 70.90839844-32.72783203 70.90839843-70.90927734s-29.99970703-70.90927734-70.90927734-70.90927735m-376.36347656-46.36318359c-65.45478516 0-117.27246094 51.81767578-117.27246094 117.27246094s51.81767578 117.27246094 117.27246094 117.27246093 117.27246094-51.81767578 117.27246093-117.27246093-51.81767578-117.27246094-117.27246093-117.27246094M135.63652344 438.36347656c-38.18232422 0-70.90927734 32.72783203-70.90927735 70.90927735s29.99970703 70.90927734 70.90927735 70.90927734 70.90927734-32.72783203 70.90927734-70.90927734-32.72783203-70.90927734-70.91015625-70.90927735" fill="#333333" p-id="7468"></path></svg>