<svg xmlns="http://www.w3.org/2000/svg" viewBox="0 0 1027 1024" version="1.1"><path d="M888.94095313 782h-75.00058594V440.74970703c0-168.75-135-303.75-299.99970703-303.75s-299.99970703 135-299.99970704 303.75V782H138.94036719V440.74970703C138.94124609 230.75 307.69124609 62 513.94066016 62s375.00029297 168.75 375.00029296 378.74970703V782zM514.31595313 962c-60.00029297 0-116.25029297-26.25029297-153.75058594-74.99970703-14.99941406-15.00029297-11.25-37.50029297 3.75029297-52.50058594 15.00029297-11.25 41.24970703-11.25 52.49970703 7.50058594 26.25029297 29.99970703 60.00029297 45 97.50058594 45s71.24941406-15.00029297 93.74941406-45c11.25-15.00029297 37.50029297-18.75058594 52.50058593-7.50058594 14.99941406 11.25 18.74970703 37.50029297 7.49970704 52.50058594C630.56536719 935.74970703 574.31536719 962 514.31595313 962z m412.49970703-142.49970703h-11.25c-258.75-78.75-543.75029297-78.75-802.50029297 0-18.74970703 3.74941406-41.24970703-7.50058594-48.74941406-26.25029297-7.50058594-18.74970703 3.74941406-41.24970703 26.24941406-45 273.75029297-82.50029297 573.75-78.75 847.50029297 0 18.74970703 7.49970703 29.99970703 26.25029297 26.25029297 45-7.50058594 18.74970703-22.5 26.25029297-37.50029297 26.25029297z" fill="#333333" p-id="7686"></path></svg>