<svg xmlns="http://www.w3.org/2000/svg" viewBox="0 0 1024 1024" version="1.1"><path d="M502.2125 899.28125c-210.628125 0-382.021875-171.365625-382.021875-381.99375 0-210.65625 171.39375-381.99375 382.021875-381.99375 210.65625 0 382.021875 171.3375 382.021875 381.99375 0 210.65625-171.39375 381.99375-382.021875 381.99375m0-820.265625C260.5625 79.015625 63.96875 275.665625 63.96875 517.2875c0 241.65 196.59375 438.24375 438.24375 438.24375S940.484375 758.9375 940.484375 517.2875c0-241.621875-196.59375-438.24375-438.271875-438.24375" fill="#333333" p-id="6873"></path><path d="M417.8375 348.5375a28.125 28.125 0 0 0-28.125 28.125v281.25a28.125 28.125 0 0 0 56.25 0v-281.25a28.125 28.125 0 0 0-28.125-28.125m168.75 0a28.125 28.125 0 0 0-28.125 28.125v281.25a28.125 28.125 0 0 0 56.25 0v-281.25a28.125 28.125 0 0 0-28.125-28.125" fill="#333333" p-id="6874"></path></svg>