<svg xmlns="http://www.w3.org/2000/svg" viewBox="0 0 1024 1024" version="1.1"><path d="M113.5625 759.3125c-10.3125 0-18.75-8.4375-18.75-18.75V283.4375c0-10.3125 8.4375-18.75 18.75-18.75s18.75 8.4375 18.75 18.75v457.125c0 10.3125-8.4375 18.75-18.75 18.75z" fill="#333333" p-id="7576"></path><path d="M120.3125 512.84375l396.9375 229.21875c0.65625 0.375 1.40625-0.09375 1.40625-0.84375v-458.4375c0-0.75-0.75-1.21875-1.40625-0.84375L120.3125 511.15625c-0.65625 0.375-0.65625 1.3125 0 1.6875z" fill="#333333" p-id="7577"></path><path d="M512.09375 512.84375l396.9375 229.21875c0.65625 0.375 1.40625-0.09375 1.40625-0.84375v-458.4375c0-0.75-0.75-1.21875-1.40625-0.84375L512.09375 511.15625c-0.65625 0.375-0.65625 1.3125 0 1.6875z" fill="#333333" p-id="7578"></path></svg>