<svg xmlns="http://www.w3.org/2000/svg" viewBox="0 0 1024 1024" version="1.1"><path d="M740.46113281 338.92314453h175.38574219L904.30683594 475.07714844 728.92285156 382.76914063c-11.53828125-6.92314453-16.15429688-20.76855469-9.23027343-32.30771485 2.30712891-6.92314453 11.53828125-11.53828125 20.76855468-11.53828125z m-470.76855469 346.15371094H101.23085938L112.76914062 548.92285156l168.46171875 92.30800782c11.53828125 6.92314453 16.15429688 20.76855469 9.23027344 32.30771484-4.61425781 6.92314453-13.84541016 11.53828125-20.76855468 11.53828125zM509.69199219 962C288.15400391 962 101.23085938 805.0765625 66.61513672 585.84570313 62 567.38515625 75.84628906 551.23173828 94.30859375 546.61660156c18.46142578-2.30800781 36.92285156 9.23027344 39.23085937 27.69169922 29.99970703 184.61601563 189.23027344 318.46201172 376.15429688 318.46201172 168.46083984 0 318.46113281-113.07744141 366.92226563-274.61601563 4.61601563-18.46142578 25.38457031-29.99970703 43.84599609-23.0765625 18.46230469 4.61513672 30.00058594 25.38457031 23.0774414 43.8459961C885.84628906 828.15400391 708.15341797 962 509.69287109 962z m410.76914062-484.61572266c-16.15341797 0-32.30771484-11.53828125-34.61484375-29.99970703C855.84570313 265.0765625 696.61425781 131.23144531 509.69199219 131.23144531c-168.46083984 0-318.46113281 113.07744141-364.61425781 274.61601563-4.61601563 18.46142578-25.38544922 29.99970703-43.846875 23.0765625-18.46142578-4.61513672-29.99970703-25.38457031-23.07744141-43.8459961C133.53857422 195.84599609 311.23144531 62 509.69199219 62c221.53886719 0 408.46201172 156.9234375 443.07685547 376.15429688 2.30800781 18.46142578-9.23027344 36.92285156-27.69169922 39.22998046h-4.61601563z" fill="#333333" p-id="7144"></path></svg>