<svg xmlns="http://www.w3.org/2000/svg" viewBox="0 0 1024 1024" version="1.1"><path d="M288.29287109 304.56054687a49.99570312 49.99570312 0 1 1-52.54541015-84.99199218c78.94335938-48.8953125 157.88583984-97.49091797 236.87841797-146.38623047a74.99267578 74.99267578 0 0 1 78.7930664 0l236.82832031 146.28603515a49.99570312 49.99570312 0 1 1-52.54541015 85.04296875L511.97275391 166.42285156 288.29199219 304.56054687m0 414.96064454a49.99570312 49.99570312 0 1 0-52.54541016 84.99287109l236.87841797 146.28603516a74.99267578 74.99267578 0 0 0 78.79306641 0l236.82832031-146.28603516a49.99570312 49.99570312 0 1 0-52.54541016-84.99287109L511.97275391 857.55957031C437.37998047 811.56376953 362.83642578 765.46777344 288.24277344 719.421875" fill="#333333" p-id="6982"></path></svg>