<svg xmlns="http://www.w3.org/2000/svg" viewBox="0 0 1024 1024" version="1.1"><path d="M962 640.07685547H858.15371094v-110.76855469c0-200.76943359-155.76855469-363.46289063-346.15371094-363.46289062s-346.15371094 162.69345703-346.15371094 363.46289062v110.76855469H62v-110.76855469C62 269.69169922 262.76855469 62 512 62s450 207.69257812 450 467.30742187v110.7694336zM235.07685547 823.53886719C138.15371094 823.53886719 62 747.38427734 62 650.46113281s76.15371094-173.07685547 173.07685547-173.07685547 173.07685547 76.15458984 173.07685547 173.07685547S332 823.53886719 235.07685547 823.53886719z m0-242.30830078c-38.07685547 0-69.23144531 31.15371094-69.23144531 69.23144531s31.15458984 69.23056641 69.23144531 69.23056641 69.23144531-31.15371094 69.23144531-69.23144532-31.15458984-69.23056641-69.23144531-69.2305664z m553.84628906 242.30830078c-96.92314453 0-173.07685547-76.15458984-173.07685547-173.07773438S692 477.38427734 788.92314453 477.38427734 962 553.53886719 962 650.46113281s-76.15371094 173.07773438-173.07685547 173.07773438z m0-242.30830078c-38.07685547 0-69.23144531 31.15371094-69.23144531 69.23144531s31.15458984 69.23056641 69.23144531 69.23056641 69.23144531-31.15371094 69.23144531-69.23144532-31.15458984-69.23056641-69.23144531-69.2305664z m-131.53886719 377.30830078c-20.76855469 0-41.53798828-13.84628906-48.46113281-38.07773438-6.92314453-27.69169922 6.92314453-55.38427734 34.61572266-65.76855469 90-27.69257813 166.15371094-90 207.69169922-173.07685546 13.84628906-24.23144531 45-34.61572266 69.23144531-20.7694336s34.61484375 45 20.76855469 69.23144531c-55.38427734 107.30654297-155.76855469 190.38339844-270 225.00000001-3.46113281 3.46113281-10.38427734 3.46113281-13.84628907 3.46113281z" fill="#333333" p-id="6711"></path></svg>