<svg xmlns="http://www.w3.org/2000/svg" viewBox="0 0 1024 1024" version="1.1"><path d="M512 959.63134766c-21.31611328 0-45-4.73730469-66.31611328-16.5788086l-272.36777344-139.73730469c-47.36865234-23.68388672-75.78984375-73.4203125-75.78984375-125.52539062V346.21015625c0-54.47373047 28.42119141-101.84150391 75.78984375-125.52539063l272.36777344-139.73730468c40.26269531-21.31611328 90-21.31611328 130.26269531 0l272.36953125 139.73730468c47.36777344 23.68388672 75.78896484 73.4203125 75.78896484 125.52539063v331.5796875c0 54.47373047-28.42119141 101.84150391-75.78896484 125.52539063l-272.36865234 139.73730468c-18.94746094 11.84238281-42.63134766 16.57880859-63.94746094 16.5788086z m0-824.21015625c-11.84238281 0-21.31611328 2.36865234-33.15761719 7.10507812l-272.36865234 139.73730469c-23.68388672 11.84150391-37.89492188 37.89404297-37.89492188 63.94658203v331.5796875c0 26.05253906 14.21103516 49.73730469 37.89492188 63.94658203l272.36865234 139.73730469c21.31523437 9.47373047 45 9.47373047 66.31523438 0l272.36865234-139.73730469c23.68388672-11.84150391 37.89492188-35.52539063 37.89492188-63.94658203V346.21015625c0-26.05253906-14.21103516-49.73730469-37.89492188-63.94658203L545.15761719 142.52539062c-11.84150391-4.73730469-21.31523437-7.10507813-33.15761719-7.10507812z m0 566.05253906c-97.10507813 0-177.63134766-80.52626953-177.63134766-177.63134766S414.89404297 346.21015625 512 346.21015625s177.63134766 80.52626953 177.63134766 177.63222656S609.10595703 701.47373047 512 701.47373047z m0-284.21015625c-59.21015625 0-106.57880859 47.36777344-106.57880859 106.57880859S452.78984375 630.42119141 512 630.42119141s106.57880859-47.36865234 106.57880859-106.5788086S571.21015625 417.26269531 512 417.26269531z" fill="#333333" p-id="6819"></path></svg>