<svg xmlns="http://www.w3.org/2000/svg" viewBox="0 0 1024 1024" version="1.1"><path d="M731.99990234 406.00039063C638 472.00009766 559.99970703 548 494 641.99902344c-18 24.00029297-54 24.00029297-69.99960938-1.99951172-30.00058594-46.00019531-64.00019531-80.00068359-110.00039062-110.00039063-21.99990234-14.00009766-7.99980469-47.99970703 18-43.99980468 50.00009766 10.00019531 87.99960937 29.99970703 126 64.00019531 68.00009766-82.00019531 154.00019531-146.00039062 252-188.00068359 24.00029297-7.99980469 43.99980469 28.00019531 21.99990234 44.00068359M512 962C263.99990234 962 62 760.00009766 62 512S263.99990234 62 512 62s450 201.99990234 450 450-201.99990234 450-450 450z m0-839.99970703C296 122.00029297 122.00029297 296 122.00029297 512S296 901.99970703 512 901.99970703 901.99970703 728 901.99970703 512 728 122.00029297 512 122.00029297z" fill="#333333" p-id="7956"></path></svg>