<svg xmlns="http://www.w3.org/2000/svg" viewBox="0 0 1024 1024" version="1.1"><path d="M512 962C264.5 962 62 759.5 62 512S264.5 62 512 62s450 202.5 450 450-202.5 450-450 450z m0-825.00029297c-206.25029297 0-375.00029297 168.75-375.00029297 375.00029297s168.75 375.00029297 375.00029297 375.00029297 375.00029297-168.75 375.00029297-375.00029297S718.25029297 136.99970703 512 136.99970703zM455.75 343.25a56.25 56.25 0 1 0 112.5 0 56.25 56.25 0 1 0-112.5 0z m-15.00029297 131.24970703h45c11.25 0 18.75058594 7.50058594 18.75058594 18.75058594v7.49970703c0 11.25-7.50058594 18.74970703-18.75058594 18.74970703h-45c-11.25 0-22.5-11.25-22.5-22.5s11.25-22.5 22.5-22.5z m45 0H523.25c22.5 0 45 18.75058594 45 45v7.50058594L534.5 725.75c0 7.49970703-7.49970703 15.00029297-18.74970703 15.00029297H478.25c-22.5 0-45-18.75058594-45-45v-7.50058594L467 489.5c3.75029297-7.49970703 11.25-15.00029297 18.74970703-15.00029297z m7.50058594 221.25058594h67.5c11.25 0 22.5 11.25 22.5 22.5s-11.25 22.5-22.5 22.5h-67.5c-11.25 0-18.75058594-7.50058594-18.75058594-18.75058594v-11.25c3.75029297-11.25 11.25-14.99941406 18.75058594-14.99941406z" fill="#333333" p-id="6225"></path></svg>