<svg xmlns="http://www.w3.org/2000/svg" viewBox="0 0 1024 1024" version="1.1"><path d="M454.93207837 670.47743033l25.10802261-44.6251008c-114.22433053-64.26559374-176.08798322-129.62679011-194.41398784-207.15021198l192.86780359 0 0-51.20918984-198.72187961 0-0.05705045-19.82328718 0-88.51669561 178.13597866 0 0-51.19987484L50.21380381 207.95307008l0 51.19987484 178.30014406 0 0 88.44916623-0.04890054 19.89081656L30.12039907 367.49292885l0 51.20918983 192.49057224 0c-18.33415453 77.52342187-80.1989723 142.88578219-194.42330169 207.15021199l25.1173376 44.6251008c70.48176526-39.65588935 158.22536931-98.61695488 200.81761052-188.57854066 11.03169536 23.38719517 25.54230443 45.78939563 43.62497138 67.04243826C334.05263758 591.63486208 385.47489223 631.39204437 454.93207837 670.47743033z" fill="#2c2c2c" p-id="8551"></path><path d="M658.01074915 444.58090382c0.16416541-57.37296782 0.33764579-111.55692999-0.17348038-150.53636494-0.32833081-25.02070045-8.30840946-45.27827058-23.72483983-60.24644722-28.62419399-27.77775104-73.63118307-27.00582343-97.82057756-26.5994843-2.48227726 0.04773661-4.75265251 0.08732217-6.76222521 0.08732217l0 51.21384675c2.27037525 0 4.8306597-0.05355747 7.63195392-0.10129408 16.74954866-0.28525227 47.93402709-0.81151317 61.28383431 12.15291165 1.97115107 1.91293667 7.96959971 7.733248 8.18150173 24.15097173 0.07684323 5.60258731 0.13622272 11.56377827 0.18395818 17.78460672l-79.54230954 47.43687282 26.23622485 43.96843804 53.45977116-31.87839886c-0.01047893 18.1420453-0.05705045 37.33195662-0.11642993 57.03415694l-79.58073117 47.47063751 26.23622485 43.9835739 53.16986198-31.72471125c-0.02910777 14.68408946-0.04890055 29.28085675-0.04890056 43.57723477 0 11.73725867-6.90659783 30.42070073-15.09857848 40.78525554-23.76442653 30.09120597-64.25977287 53.32471353-64.63700424 53.54709334l25.21280968 44.56339341c2.00840875-1.13984512 49.51863296-28.27606926 79.60983893-66.37529656 15.38848768-19.47516359 26.12096-49.29625202 26.12096-72.51928178C657.83610482 503.71195676 657.92342699 473.84196665 658.01074915 444.58090382z" fill="#2c2c2c" p-id="8552"></path><path d="M735.02188203 332.12630129L786.24154965 332.12630129 786.24154965 290.94402161 895.10197248 290.94402161 895.10197248 332.12630129 946.31232626 332.12630129 946.31232626 290.94402161 995.64700103 290.94402161 995.64700103 239.73483179 946.31232626 239.73483179 946.31232626 206.40688582 895.10197248 206.40688582 895.10197248 239.73483179 786.24154965 239.73483179 786.24154965 206.40688582 735.02188203 206.40688582 735.02188203 239.73483179 686.78746567 239.73483179 686.78746567 290.94402161 735.02188203 290.94402161Z" fill="#2c2c2c" p-id="8553"></path><path d="M762.82408277 673.17277241l156.78630002 0c41.8284635 0 76.0366171-34.2163035 76.0366171-76.04127403L995.64700103 397.83562126l0-31.70491848L686.78746567 366.13070278l0 51.20918984L686.78746567 597.13149838C686.78746567 638.95647004 720.99561927 673.17277241 762.82408277 673.17277241zM866.81775331 417.33989262l77.62005789 0 0 76.32536235-77.62005789 0L866.81775331 417.33989262zM866.81775331 544.86978673l77.62005789 0 0 52.26171165c0 13.46157909-11.3705051 24.82742727-24.82626333 24.82742727l-52.79379456 0L866.81775331 544.86978673zM738.00713443 417.32941369l77.61074404 0 0 76.32536234L738.00713443 493.65477603 738.00713443 417.32941369zM737.99781945 544.86978673l77.62005788 0 0 77.08914005-52.79379456 0c-13.45692217 0-24.82742727-11.36584818-24.82742727-24.82742726L737.9966555 544.86978673z" fill="#2c2c2c" p-id="8554"></path><path d="M376.27812523 737.1146934c-19.71733618 0-26.76015787 20.88512512-26.76015787 20.88512512l-41.88667904 105.10440676 21.66869561 0 17.45511196-44.50517789 57.50802546 0 17.1861595 44.50517789 23.46520235 0-41.86688626-105.10440676C403.04759808 757.99981739 396.05134905 737.1146934 376.27812523 737.1146934zM355.0064549 798.19593955l12.19016931-29.68603079c0 0 2.41591182-6.67490304 9.08150102-6.67490304 6.88796899 0 9.0989659 6.67490304 9.0989659 6.67490304l10.69404956 28.39599218 0.48318237 1.29003861L355.0064549 798.19593955z" fill="#2c2c2c" p-id="8555"></path><path d="M29.81186105 756.65738524L80.77887715 756.65738524 80.77887715 863.03553081 80.78935609 863.03553081 101.99349703 863.03553081 101.99349703 756.65738524 152.97099207 756.65738524 152.97099207 736.80499029 29.81186105 736.80499029Z" fill="#2c2c2c" p-id="8556"></path><path d="M473.51888441 820.64238364l0-83.56611299-21.07839716 0 0 20.95265336 0 72.39470194c0 18.94424462 13.12859136 32.56533219 33.08577224 32.56533219l25.63894158 0 0-20.83738851c0 0-4.74333753 0.02910777-15.60038969 0.02910777C481.42095474 842.17951459 473.51888441 839.58546432 473.51888441 820.64238364z" fill="#2c2c2c" p-id="8557"></path><path d="M546.04748003 820.64238364l0-83.56611299-21.07956224 0 0 20.95265336 0 72.39470194c0 18.94424462 13.13906915 32.56533219 33.10556502 32.56533219l25.6191488 0 0-20.83738851c0 0-4.73285973 0.02910777-15.61203257 0.02910777C553.94955037 842.17951459 546.04748003 839.58546432 546.04748003 820.64238364z" fill="#2c2c2c" p-id="8558"></path><path d="M282.07967005 737.64561123c-7.03234162-2.85019477-13.57218702 2.39611904-14.8668837 3.4148773-9.24566755 7.27917227-19.21436103 18.11759559-37.33661355 18.11759559l-0.7160411 0-0.22121586 0-0.70556331 0c-18.13273145 0-28.10142493-10.83842219-37.33661354-18.11759559-1.29469554-1.01875826-7.84385593-6.26507207-14.87736264-3.4148773-6.57943097 2.6569216-7.61332509 8.96507221-7.61332508 13.9692123 0 9.63570574 0.01979278 65.21682261 0.01979278 111.31592136l21.04929053 0 0-94.71889523c6.96481337 3.84450219 21.49405127 13.38007893 38.99806265 13.38007894l1.1596379 0c16.6447616 0 32.02393543-9.53441166 38.97943381-13.38007894l0 94.71889523 21.06908331 0c0.01862883-46.09909874 0.02794269-101.67905166 0.02794268-111.31592136C289.71162397 746.61068345 288.64978717 740.30253283 282.07967005 737.64561123z" fill="#2c2c2c" p-id="8559"></path><path d="M988.16989753 737.64561123c-7.03234162-2.85019477-13.57218702 2.39611904-14.8668837 3.4148773-9.23635257 7.27917227-19.20504718 18.11759559-37.3272997 18.11759559l-0.71487715 0-0.23169479 0-0.69508438 0c-18.13156637 0-28.11190386-10.83842219-37.33777749-18.11759559-1.29353159-1.01875826-7.84385593-6.26507207-14.87736263-3.4148773-6.57826702 2.6569216-7.61216114 8.96507221-7.61216114 13.9692123 0 9.63570574 0.01979278 65.21682261 0.01979278 111.31592136l21.04929053 0 0-94.71889523c6.96481337 3.84450219 21.49405127 13.38007893 38.9887488 13.38007894l1.1596379 0c16.65407659 0 32.03324928-9.53441166 38.9887488-13.38007894l0 94.71889523L995.78205867 862.93074489c0.01862883-46.09909874 0.02910777-101.67905166 0.02910776-111.31592136C995.81116643 746.61068345 994.7388507 740.30253283 988.16989753 737.64561123z" fill="#2c2c2c" p-id="8560"></path><path d="M616.54903808 841.97692643c-5.81565326 0-10.54851299 4.70957397-10.54851299 10.52057032 0 5.81565326 4.73285973 10.52988416 10.54851299 10.52988416 5.81565326 0 10.52988416-4.7142309 10.52988416-10.52988416C627.07775829 846.68650041 622.36469248 841.97692643 616.54903808 841.97692643z" fill="#2c2c2c" p-id="8561"></path><path d="M801.72667335 737.19153664c-15.17658567 0-28.21785486 4.53027157-38.79547562 13.46623601-12.64540899 10.73247232-19.06882446 27.37723392-19.06882447 49.45110357 0 20.12251136 5.3802075 35.80090823 15.94967837 46.58228111 10.59741355 10.82910834 24.69120569 16.34553856 41.91578567 16.34553856 10.66494293 0 20.68253696-2.49741312 29.76287403-7.40025913 9.06170823-4.92147485 16.06494322-11.93518877 20.85718129-20.86649628 4.70491591-8.86377813 7.07076437-21.08887609 7.07076437-36.30388452 0-18.96287346-5.41862912-34.07193088-16.1324726-44.89172423C832.56186425 742.71262379 818.57402311 737.19153664 801.72667335 737.19153664zM828.10843477 832.58223046c-7.09055715 6.88331207-15.97878499 10.37969067-26.38176142 10.37969067-10.73363627 0-19.40763421-3.36131982-26.54592682-10.29818936-7.25472256-7.10569301-10.95485213-18.04540928-10.95485213-32.5548544 0-14.50013013 3.70012957-25.41656064 10.95485213-32.46869619 7.03234162-6.80996181 15.97762105-10.26908274 26.54592682-10.26908273 10.39482653 0 19.25278265 3.4626139 26.32354702 10.3168182 7.30362311 7.05213554 11.01306653 17.7461851 11.01306653 31.77244786C839.0632869 814.33889109 835.38178617 825.49167331 828.10843477 832.58223046z" fill="#2c2c2c" p-id="8562"></path><path d="M697.90764829 756.36747605c10.39482653 0 19.24230485 3.45795584 26.31306808 10.30750436 0.49249735 0.48318237 0.96636473 0.98499357 1.43906816 1.50659754l11.81526585-17.5238053c-10.42393315-9.60194105-23.7364827-14.4710235-39.56856718-14.4710235-15.17658567 0-28.21901881 4.52095773-38.79663957 13.4615791-12.65472285 10.72315733-19.06998841 27.38189085-19.06998841 49.44178972 0 20.12716829 5.37089251 35.81022322 15.94967836 46.5822811 10.5880997 10.84424419 24.6818907 16.35019549 41.91695076 16.35019549 10.654464 0 20.67205917-2.50207005 29.75356017-7.40957412 2.2214747-1.20737451 4.3183707-2.54049166 6.29883677-3.99469681l-9.41798286-19.30634013c-0.08732217 0.08732217-0.16416541 0.17348039-0.26196651 0.26080256-7.08124217 6.88796899-15.95899221 10.38434759-26.37244757 10.38434759-10.73363627 0-19.41811314-3.37179875-26.54709191-10.30750436-7.25472256-7.11034994-10.95368818-18.03609429-10.95368818-32.55951132 0-14.49547321 3.69896562-25.41190371 10.95368818-32.45356032C678.39406307 759.8056391 687.32886357 756.36747605 697.90764829 756.36747605z" fill="#2c2c2c" p-id="8563"></path></svg>