<svg xmlns="http://www.w3.org/2000/svg" viewBox="0 0 1024 1024" version="1.1"><path d="M947.15 313.1c-4.5-13.05-10.35-25.65-20.7-35.1-7.65-6.75-17.55-10.8-27.45-10.8-9.9-0.9-19.8 2.7-28.35 7.65-11.7 6.75-21.15 16.2-30.15 26.1-4.5 5.4-8.55 11.25-13.5 16.2-12.6 13.95-25.65 27-39.15 40.05-13.5 13.05-27.45 26.1-44.55 35.1-20.7 11.7-43.65 19.35-67.5 22.05-15.3 2.25-31.05 1.35-46.8 1.35H403.1c-20.25 0-41.4 0.9-61.65-2.7-29.25-4.95-56.7-18-80.1-36-25.2-19.35-46.8-42.75-67.5-66.6-10.35-11.7-20.25-23.85-33.3-32.85-9.45-6.3-20.25-11.25-31.5-11.25-13.5-0.45-26.1 5.85-34.65 15.75-9.9 11.25-15.3 25.2-18.9 39.15-5.85 20.7-7.65 42.3-8.55 63.45v187.65h87.75c-16.65-30.15-15.3-69.3 3.15-98.55 16.65-27 46.8-44.55 78.3-46.35-4.05 2.25-7.65 6.3-9.9 10.8-7.2 13.05-10.35 27.9-13.05 42.3-4.95 30.15-4.95 61.2 0 91.35h56.7c4.5-28.35 4.95-57.6 0.9-85.95-2.25-14.85-5.4-30.15-11.7-43.65-2.7-5.4-6.75-11.25-12.15-14.85 6.75 0.9 13.95 1.8 20.7 3.6 26.55 7.2 49.5 26.1 61.65 50.4 14.4 27.9 14.4 63-0.9 90.9h368.55c-13.95-25.65-15.3-57.15-4.05-84.15 7.2-17.55 19.8-32.4 35.1-43.2 14.4-10.35 32.4-16.65 50.4-17.55-2.25 1.8-4.95 3.6-6.75 6.3-5.4 7.2-8.55 15.75-11.25 24.3-4.95 16.2-7.2 32.85-8.1 49.5-1.35 21.6-0.45 43.2 3.15 64.35h56.7c4.5-27.9 4.95-55.8 1.35-83.7-2.25-16.2-5.4-32.85-13.05-47.7-2.7-5.4-6.3-11.25-12.15-13.5 3.6 0.45 7.65 0.45 11.25 1.35 29.25 4.5 55.8 23.4 70.2 49.05 16.2 28.8 16.65 65.7 0.9 94.5h86.85V374.75c-1.35-21.15-4.05-41.85-10.35-61.65z m-407.25 200.7c-7.65 10.35-14.85 20.7-22.5 31.05-2.7 2.25-8.1 2.25-10.8-0.45-7.2-10.8-14.85-21.15-22.5-31.5-1.8-2.7-3.15-5.85-1.35-8.55s5.4-3.6 8.55-4.05c13.05-0.45 26.1 0 38.7 0.45 4.05 0 8.55 0.9 11.25 4.05 2.25 2.7 0.45 6.3-1.35 9zM130.4 680.75h47.7v-11.7H72.35V680.75H118.25v30.6H66.95v11.7h49.95c-1.35 6.3-10.8 41.85-49.95 54.9v11.7c23.85-4.95 46.35-25.2 57.15-49.05 12.15 27 37.35 44.55 59.4 49.05V777.5c-39.6-13.5-50.85-49.5-52.2-54.9h52.2v-11.7H130.4V680.75z m179.55-11.7H298.25v13.05h-31.5v-13.05h-11.7v13.05h-12.6v11.7h12.6v10.8h11.7v-10.8h31.5v10.8h11.7v-10.8h12.6v-11.7h-12.6z m-7.65 44.55h-59.4v55.8c0 12.6 6.75 20.7 20.7 20.7h58.95v-56.7c0-12.6-5.85-19.8-20.25-19.8z m-25.2 65.25h-6.75c-10.8 0-15.75-1.35-15.75-13.5v-8.55h22.5v22.05z m0-32.85h-22.5v-21.15h22.5v21.15z m33.75 32.85h-22.5v-22.05h22.5v22.05z m0-32.85h-22.5v-21.15h8.1c10.35 0 14.4 0 14.4 13.5v7.65zM201.5 669.05V680.75c11.7 0.45 19.35 5.4 20.7 15.3l0.45 1.35-21.15 12.15v12.15s15.3-9.45 21.15-12.15v20.25l-21.15 12.6v12.15s15.75-9.45 21.15-12.15v7.2c0 27-21.15 28.8-21.15 28.8v12.15c9-0.45 33.3-4.05 33.3-41.85v-49.05c-0.9-19.8-12.6-30.6-33.3-30.6z m149.85 56.25h31.95v64.35h13.05v-64.35h31.5v-12.15h-76.5z m485.55-11.7c-9.45 0-17.55 2.7-24.3 8.1-7.65 6.3-11.7 16.65-11.7 29.7 0 12.15 3.15 21.6 9.9 27.9 6.75 6.75 15.3 9.9 26.1 9.9 6.75 0 13.05-1.35 18.45-4.5 5.85-3.15 9.9-7.2 13.05-12.6 2.7-5.4 4.5-12.6 4.5-22.05 0-11.25-3.15-20.7-9.9-27-6.75-6.3-15.3-9.45-26.1-9.45z m16.65 57.6c-4.5 4.05-9.9 6.3-16.2 6.3-6.75 0-12.15-1.8-16.65-6.3s-6.75-10.8-6.75-19.8 2.25-15.3 6.75-19.8c4.5-4.05 9.9-6.3 16.65-6.3 6.3 0 12.15 2.25 16.2 6.3 4.5 4.5 6.75 10.8 6.75 19.35 0 9.45-2.25 16.2-6.75 20.25z m-75.15 0c-4.5 4.05-9.9 6.3-16.2 6.3-6.75 0-12.15-1.8-16.65-6.3s-6.75-10.8-6.75-19.8 2.25-15.3 6.75-19.8c4.5-4.05 9.9-6.3 16.65-6.3 6.3 0 12.15 2.25 16.2 6.3l1.8 1.8h14.85c-1.8-4.05-4.05-7.2-6.75-10.35-6.75-6.75-15.3-9.9-25.65-9.9-9.45 0-17.55 2.7-24.3 8.1-7.65 6.3-11.7 16.65-11.7 29.7 0 12.15 3.15 21.6 9.9 27.9 6.75 6.75 15.3 9.9 26.1 9.9 6.75 0 13.05-1.35 18.45-4.5s9.9-7.2 13.05-12.6c0.45-0.9 0.9-1.8 1.35-3.15h-14.85c-1.35 1.8-1.8 2.25-2.25 2.7z m173.7-57.15c-4.5-1.8-8.55 1.35-9.45 2.25-5.85 4.5-12.15 8.1-23.4 8.1h-0.9c-11.25 0-17.55-4.05-23.4-8.1-0.9-0.45-4.95-3.6-9.45-2.25-4.05 1.8-4.95 5.4-4.95 8.55v67.05h13.05V732.5c4.5 2.25 13.5 5.4 24.3 5.4h0.9c10.35 0 19.8-3.15 24.3-5.4v57.15h13.05v-67.05c0.9-3.15 0-7.2-4.05-8.55z m-443.7 0c-4.5-1.8-8.55 1.35-9.45 2.25-5.85 4.5-12.15 8.1-23.4 8.1h-0.9c-11.25 0-17.55-4.05-23.4-8.1-0.9-0.45-4.95-3.6-9.45-2.25-4.05 1.8-4.95 5.4-4.95 8.55v67.05h13.05V732.5c4.5 2.25 13.5 5.4 24.3 5.4h0.9c10.35 0 19.8-3.15 24.3-5.4v57.15h13.05v-67.05c0.45-3.15 0-7.2-4.05-8.55z m207.45 63c-3.6 0-6.75 2.7-6.75 6.3s3.15 6.3 6.75 6.3 6.3-2.7 6.3-6.3c0.45-3.6-2.7-6.3-6.3-6.3z m-43.65-13.05v-50.4h-13.05v56.25c0 11.25 8.1 19.8 20.7 19.8h15.75v-12.6h-9.45c-9 0-13.95-1.35-13.95-13.05z m-107.1-50.4c-12.15 0-16.65 12.6-16.65 12.6l-26.1 63.45h13.5c13.5-28.8 43.2-28.8 45.9-28.8l11.25 28.8h14.4l-26.1-63.45c0.45 0-4.05-12.6-16.2-12.6z m-16.65 45l10.8-26.1s1.35-4.05 5.85-4.05 5.4 4.05 5.4 4.05l6.75 17.1c-3.15 0.45-18 1.35-28.8 9z m78.75 5.4v-50.4h-13.05v56.25c0 11.25 8.1 19.8 20.7 19.8h15.75v-12.6h-9.45c-9 0-13.95-1.35-13.95-13.05z" fill="#2c2c2c" p-id="8894"></path></svg>