<svg xmlns="http://www.w3.org/2000/svg" viewBox="0 0 1024 1024" version="1.1"><path d="M181.99970703 536.99960938c-9.99931641 0-22.5-4.99921875-29.99970703-14.99941407-12.49980469-17.49990234-10.00019531-39.99990234 7.49970703-52.50058593L482.00029297 219.5c17.49902344-12.49980469 39.99902344-10.00019531 52.49970703 7.49970703s10.00019531 39.99990234-7.49970703 52.50058594L204.49970703 529.49902344c-5.00009766 5.00009766-12.49980469 7.49970703-22.5 7.49970703z m655.00048828 0c-7.50058594 0-15.00029297-2.49960937-22.5-7.49970704L491.99960938 279.50029297c-17.49902344-12.50068359-19.99951172-37.50029297-7.49970704-52.50058594 12.49980469-17.49902344 37.50029297-19.99951172 52.49970704-7.49970703l322.50058593 249.99960937c17.49902344 12.50068359 19.99951172 37.50029297 7.49970703 52.50058594-7.49970703 10.00019531-17.49990234 14.99941406-29.99970703 14.99941406zM512 962c-20.00039062 0-37.50029297-17.49990234-37.50029297-37.50029297v-675c0-19.99951172 17.49990234-37.49941406 37.50029297-37.49941406s37.50029297 17.49902344 37.50029297 37.49941406v675c0 20.00039062-17.49990234 37.50029297-37.50029297 37.50029297zM839.49980469 136.99970703h-652.5c-19.99951172 0-37.49941406-17.49902344-37.49941406-37.49941406S166.99941406 62 186.99980469 62h652.5c20.00039062 0 37.50029297 17.49990234 37.50029297 37.50029297s-17.49990234 37.49941406-37.50029297 37.49941406z" fill="#333333" p-id="7902"></path></svg>