<svg xmlns="http://www.w3.org/2000/svg" viewBox="0 0 1024 1024" version="1.1"><path d="M59.11873106 804.34557787v-546.94241974c1.51460978 0 3.08100109-0.56959683 4.73801008-0.66021452 3.65059792 0 7.30119585 0 10.95179377-0.37541611l35.5739117-1.95475278 19.53458253-0.98384909 34.00752039-1.99358894 35.57391171-2.04537047 37.14030301-1.9418074 21.04919228-1.22981135 14.47293789-0.75083222 23.41819733-1.32042903c2.56318578 0 5.21698924 0 7.81901116-0.23301689 5.22993461-0.33657995 10.38219694-0.85439525 15.61213156-1.13919368l31.25015388-1.5663913 35.5739117-1.99358894 52.16989234-2.74442114 20.73850311-1.048576 15.22377008-0.85439525 34.81013412-1.99358894c7.17174203-0.42719763 14.22697561-0.69905067 21.48933532-1.048576l15.22377007-0.85439526 36.76488691-2.03242509 19.90999861-0.99679448 14.22697561-0.90617678c6.53741827-0.42719763 13.03600039-0.89323141 19.59930943-1.28159289l32.42818371-1.56639131 43.78128434-2.52434963 17.16557748-0.8932314 48.85587437-2.79620267 26.99112297-1.47577363 46.95290311-2.36900504 21.43755378-1.048576 15.27555161-0.85439526 39.845888-2.22660582 23.04278123-1.47577364c1.69584514-0.10356306 3.39169027-0.10356306 5.07459002 0 0.77672297 0.02589076 1.51460978 0.33657995 2.08420662 0.85439527a13.65737876 13.65737876 0 0 1 4.32375783 8.97115022v546.19158755c0 1.4239921 0 1.52755517-0.29774381 2.47256809-3.49525333 0.59548761-7.02934282 0.91912217-10.57637767 0.94501294h-8.62162489l-20.2983601 1.17802984c-7.15879664 0.42719763-14.22697561 0.71199605-21.48933531 1.10035752-5.11342617 0-10.20096158 0.51781531-15.26260622 0.85439526l-34.3829365 1.99358895c-7.17174203 0.3754161-14.22697561 0.60843298-21.48933531 1.048576l-15.65096771 0.85439526c-11.32720987 0.66021452-22.62852898 1.37221057-34.00752038 1.99358894-7.15879664 0.42719763-14.22697561 0.71199605-21.47638993 1.08741215l-16.0263838 0.85439525-36.32474391 2.03242508c-6.78338053 0.33657995-13.56676109 0.62137837-20.29836009 1.048576l-34.04635656 1.99358895-42.21489303 2.3172235-43.3540867 2.36900503-42.69387221 2.36900505-43.39292286 2.36900503-42.6938722 2.31722351c-13.56676109 0.76377758-27.08174064 1.61817283-40.5967202 2.42078657l-44.15670044 2.36900503-41.82653156 2.31722352-43.76833896 2.36900503-36.75194154 1.85118973-15.22377007 0.85439525-40.64850173 2.08420661-18.97793106 0.99679449-36.71310538 2.08420661c-6.64098133 0.38836148-13.33374419 0.62137837-19.96178014 0.99679446l-17.9811366 1.08741216c-4.4143755 0.28479842-8.82875102 0.56959683-13.26901728 0.94501294-1.56639131 0.19418075-3.10689185-0.49192453-4.02601404-1.74762667a20.02650706 20.02650706 0 0 1-3.75416098-6.87399822 3.88361482 3.88361482 0 0 0-1.87708049-2.84798421zM582.83713422 428.89064297c0.71199605-0.98384909 1.61817283-2.13598815 2.36900503-3.31401799l31.72913305-47.43188226 2.75736652-3.93539635c2.08420661 0 4.18135861-0.38836148 6.2137837-0.42719762l35.61274785-1.10035755 25.80014776-0.94501293 54.77191426-1.99358894 34.04635655-1.048576h4.32375782c4.73801008 0 9.48896553-0.32363457 14.22697561-0.42719763 0.91912217 0.05178153 1.85118973 0.15534459 2.74442113 0.33657995v4.73801008a4239.58435966 4239.58435966 0 0 1-98.26840019 49.17950894l-15.88398459-6.0713845-15.70274924-6.07138448-16.07816533-6.16200219c-5.22993461-1.98064355-10.44692385-4.03895941-15.70274924-5.98076681-5.26877076-1.94180741-10.57637769-4.32375783-16.12994686-6.0713845-0.53076069 0.64726914-1.02268524 1.33337442-1.47577363 2.04537048l-22.33078518 39.08211042a2.34311427 2.34311427 0 0 0-0.38836149 2.45962272l3.23634568 1.52755516c11.79324365 4.99691773 23.53470578 10.03267161 35.23733175 15.08137086 0.85439525 0.38836148 2.04537047 0.42719763 2.42078657 1.74762667l-2.45962272 1.38515595c-22.13660445 11.13302914-44.4156081 22.27900365-66.87584711 33.43792355a12.79392174 12.79392174 0 0 1-5.98076681 1.37221057h-23.71594114a5.7568117 5.7568117 0 0 0-4.02601402 0.66021452c0 0.81555911-0.33657995 1.85118973-0.33657995 2.84798419v35.52213019a6.71865363 6.71865363 0 0 0 0.80261373 4.4143755h37.94291674c3.30107259 0.02589076 6.55036365-0.73788682 9.48896553-2.27838736 37.94291675-19.13327565 76.08001422-38.18887902 114.39834706-57.19270085l4.1166317-1.99358893 17.83873739 6.55036365 94.85081916 35.04315102c2.43373195 0.94501294 4.99691773 1.4239921 7.59893966 1.42399209h41.93009461c1.13919369 0 2.36900503 0.28479842 3.50819872-0.80261373 0.1423992-0.41425225 0.24596227-0.84144987 0.28479842-1.28159289V473.68166717a6.42090983 6.42090983 0 0 0-0.33657996-1.47577364c-1.34631981-0.56959683-2.82209343-0.76377758-4.27197629-0.56959684h-21.96831447c-3.0033288 0.05178153-6.00665758-0.40130686-8.86758717-1.32042904l-43.3540867-13.37258034-27.65133749-8.49217106c-1.07446676-0.19418075-2.07126124-0.68610528-2.84798419-1.47577364l3.98717786-2.18776967 48.80409286-25.85192929 47.43188226-25.03637017a4.74189369 4.74189369 0 0 0 2.9903834-4.73801007v-65.8402165c0.24596227-1.60522747 0.0776723-3.2234003-0.47897914-4.73801008-2.1748243-0.3754161-4.4143755-0.3754161-6.58919982 0l-19.44396484 1.99358895c-6.44680059 0.66021452-12.99716425 1.17802983-19.45691021 1.89002587-10.23979773 1.17802983-20.51843161 1.90297125-30.82295625 2.18776968-8.34977185 0-16.6995437 0.62137837-25.04931555 0.94501294l-28.45395121 1.22981136-28.98471191 1.08741215-20.72555773 0.85439525c-10.29157925 0.42719763-20.58315852 0.76377758-30.87473778 1.32042905-2.99038341 0.16828997-5.98076682-0.49192453-8.62162489-1.89002589-13.69621491-6.9646159-27.50893827-13.79977797-41.26988009-20.67377619-1.13919369-0.80261373-2.45962272-1.29453827-3.84477866-1.4239921-2.18776969 2.51140425-61.6459125 93.72457086-66.68166638 102.41092267-0.34952533 0.62137837-0.64726914 1.2686475-0.90617679 1.9418074 0.71199605 0.32363457 1.22981136 0.71199605 1.7994082 0.94501294 6.91283437 2.78325728 50.42226569 16.93256059 53.59388444 17.48921206z m-92.53359565 98.08716484l-11.56022676 0.71199604-11.34015528 0.85439526-11.28837371 0.90617679c-3.65059792 0.38836148-7.30119585 0.62137837-10.91295764 0.90617679l-11.34015526 0.90617679c-3.75416098 0.32363457-7.53421275 0.71199605-11.28837373 0.85439527-3.75416098 0.1423992-7.49537659 0.85439525-11.34015525 0.71199605-0.38836148-1.73468128-0.51781531-3.49525333-0.38836147-5.25582539V344.95278143c-0.06472691-0.62137837-0.15534459-1.24275675-0.27185305-1.85118973-0.51781531 0-0.85439525-0.38836148-1.22981136-0.33657995l-58.00825995 5.6959684c-0.73788682 0.15534459-1.46282825 0.38836148-2.18776968 0.66021452-0.44014302 1.66995437-0.58254222 3.40463565-0.38836148 5.12637155v176.35494875c-0.06472691 0.73788682-0.16828997 1.44988286-0.32363456 2.18776967-0.42719763 0.1423992-0.88028603 0.25890765-1.32042904 0.32363456l-21.47638993 1.47577363-17.59277511 1.048576-41.39933392 2.79620267-30.83590164 1.89002589-13.24312651 0.90617678-29.68376257 1.99358894c-10.05856237 0.62137837-20.01356169 1.13919369-30.07212406 1.7994082-1.46282825-0.09061769-2.93860187 0.25890765-4.22019476 0.99679447-0.02589076 0.64726914-0.02589076 1.29453827 0 1.9418074v38.40895052c0.05178153 0.75083219 0.15534459 1.48871902 0.32363457 2.22660583 1.43693748 0.45308839 2.93860187 0.56959683 4.4143755 0.33657995l9.00998638-0.51781531 24.62211792-1.048576 17.59277511-0.80261372 42.6938722-2.13598815 26.99112297-1.37221057h2.79620267c-2.79620267 3.88361482-5.41116997 7.30119585-7.96141037 10.71877688l-7.78017502 10.3433608-7.74133887 10.34336078-7.96141038 10.66699536-7.780175 10.29157927-7.78017501 10.3304154c-2.61496731 3.46936257-5.0228085 7.02934282-7.7154481 10.14918005l-32.63530983 2.65380346-36.66132384 3.08100109c-1.44988286-0.06472691-2.88682035 0.28479842-4.11663172 1.048576v40.36370331c0.09061769 0.8285045 0.20712613 1.64406361 0.38836149 2.4596227h4.02601401l12.5181851-0.66021452c6.78338053-0.28479842 13.56676109-0.56959683 20.2983601-0.95795831l38.33127822-1.98064355 23.48292424-1.08741215c6.64098133-0.32363457 13.28196267-0.94501294 19.922944-1.03563061 2.97743803 0.01294539 5.76069531-1.52755517 7.30119586-4.07779556 23.30168889-31.18542697 46.64221392-62.31907239 70.00862973-93.42682707l17.59277511-23.48292424c1.048576-1.59228208 2.84798419-2.49845886 4.73801008-2.42078657 8.82875102-0.38836148 17.6833928-0.9061768 26.51214379-1.38515595l45.39945719-2.36900505c12.46640355-0.66021452 24.98458864-1.22981136 37.51571911-1.79940819a7.85784731 7.85784731 0 0 0 4.32375783-0.94501293c0.12945383-0.46603378 0.23301689-0.94501294 0.28479842-1.43693749v-39.59992573c-0.38836148-0.6731599-0.78966835-1.29453827-1.24275674-1.8641351z m240.03328632-11.57317216a7.73357164 7.73357164 0 0 0-5.16520771-0.90617679H671.09875358c-0.9061768 0.18123536-1.81235358 0.40130686-2.70558499 0.66021453v20.91973846c0 0.99679447 0.27185303 2.03242509-0.81555911 3.02921956-5.30760691 0.33657995-10.77055842 0.66021452-16.22056454 0.85439526l-26.17556385 1.10035752-18.97793106 0.85439528-42.26667456 1.98064355-25.42473166 1.048576c-1.03563061 0.02589076-2.05831585 0.12945383-3.08100109 0.28479841-0.72494143 0.16828997-1.41104672 0.38836148-2.08420662 0.6731599-0.15534459 0.55665147-0.24596227 1.1262483-0.28479841 1.70879052v38.37011437c0.06472691 0.86734064 0.23301689 1.7217359 0.47897914 2.56318578 2.2395512 0.34952533 4.53088395 0.34952533 6.78338056 0 13.94217718-0.66021452 27.89729975-1.4239921 41.82653155-1.98064355 8.58278875-0.42719763 17.21735902-0.71199605 25.85192928-1.08741215l18.39538884-0.80261373 39.03032889-1.90297126c0.94501294 0.05178153 1.8770805 0.18123536 2.79620266 0.38836149v88.83121618c0.09061769 0.72494143 0.23301689 1.43693748 0.42719764 2.13598816 3.93539635 0.28479842 57.58106231-5.12637155 61.23166025-6.0713845 0.51781531-1.34631981 0.6731599-2.79620267 0.47897915-4.23314014v-82.9928486c-0.19418075-1.44988286-0.05178153-2.9256565 0.42719763-4.32375782 0.63432375-0.15534459 1.28159289-0.28479842 1.94180741-0.32363458 11.46960909-0.56959683 22.91332741-1.08741215 34.38293649-1.56639131l25.83898391-1.10035752 18.35655269-0.85439526 28.98471191-1.38515594 21.10097381-0.94501295c0.64726914 0.06472691 1.29453827 0.06472691 1.94180741 0 0.69905067-0.16828997 1.37221057-0.38836148 2.03242509-0.66021452 0.12945383-0.45308839 0.2200715-0.91912217 0.28479842-1.38515595v-39.1727281c-0.11650845-0.77672297-0.29774381-1.54050053-0.56959684-2.27838736-0.9709037-0.05178153-1.92886203-0.05178153-2.88682034 0l-18.97793107 0.85439526-41.4899516 1.98064356-26.17556385 1.048576-23.09456277 1.22981135-17.98113659 0.75083221a4.97102697 4.97102697 0 0 1-3.98717788-0.62137838c-0.15534459-5.43706075 0.09061769-11.02946608-0.15534459-16.67365294zM502.67932445 686.86622973l-2.42078658-4.73801008-18.30477115-34.57711723-32.38934755-61.23166025a10.08445314 10.08445314 0 0 0-2.56318578-3.8965602c-2.4725681-0.47897917-64.0408083 5.55356918-66.40981334 5.73480455-0.33657995 0-0.62137837 0.38836148-0.94501294 0.51781531-0.24596227 1.51460978 0.69905067 2.51140425 1.22981136 3.70237945l16.79016138 33.6321043 28.45395121 56.90790242 2.13598814 3.83183328c3.08100109 0.3754161 66.39686795 0.56959683 71.57502105 0.28479842 1.02268524 0.06472691 2.04537047 0.06472691 3.08100108 0l-0.23301688-0.16828997z m264.0858074-97.7505849l1.9418074 3.8965602 36.00110934 66.82406558c1.28159289 2.42078657 2.65380347 4.73801008 3.89656021 7.24941433 0.53076069 1.24275675 1.85118973 1.94180741 3.17161875 1.70879053l18.26593502-1.657009c7.17174203-0.66021452 14.22697561-1.41104672 21.43755378-1.99358894l21.01035615-1.85118972c1.61817283-0.02589076 3.23634569-0.32363457 4.73801007-0.90617679 0.06472691-0.38836148 0.06472691-0.77672297 0-1.19097521l-48.28627754-78.63025463c-1.11330291-0.06472691-2.21366045-0.06472691-3.32696334 0l-57.5292808 5.87720376s-0.51781531 0.1423992-1.13919369 0.60843298l-0.18123535 0.06472691z m-128.91012109 5.87720376c-0.9061768-0.0776723-1.79940819-0.0776723-2.70558498 0-4.73801008 0.38836148-9.0617679 0.76377758-13.60559725 1.22981136l-19.81938092 1.98064355-18.97793108 1.90297126c-2.18776969 0-4.36259397 0.56959683-6.60214517 0.85439527l-1.99358894 3.50819872-36.76488692 68.17038538c-1.1909752 2.22660583-2.36900503 4.36259397-3.46936256 6.58919979-0.19418075 0.6731599-0.29774381 1.34631981-0.28479842 2.04537047h56.92084779c5.35938845 0 4.73801008 0.23301689 6.78338055-4.1166317 13.02305502-25.9943285 26.02021925-52.00160237 38.97854736-78.02182163 0.44014302-1.44988286 1.03563061-2.84798419 1.76057205-4.16841323l-0.22007151 0.02589076zM183.10960672 367.33534815c0.45308839 1.55344592 1.32042903 2.96449264 2.51140425 4.07779555 9.48896553 11.94858825 19.49574637 23.71594114 29.26951031 35.70336554 7.06817897 8.68635181 14.22697561 17.32092208 21.29515457 26.08494617a4.76390083 4.76390083 0 0 0 4.73801007 2.04537046c3.46936257-0.42719763 7.01639743-0.66021452 10.52459616-0.99679446l23.34052503-1.99358894c7.67661195-0.62137837 15.36616928-1.1909752 23.00394508-1.85118972l12.09098746-1.13919369c0.56959683 0 1.13919369-0.33657995 2.097152-0.56959684-0.9061768-1.17802983-1.56639131-2.13598815-2.3172235-2.9903834-3.45641718-3.88361482-6.92577975-7.78017502-10.47281462-11.56022677L259.1507848 369.60079013a6.6163851 6.6163851 0 0 0-5.35938845-2.61496731H186.16471703c-0.76377758 0-1.61817283 0.18123536-2.8479842 0.29774379l-0.20712611 0.05178154z m0 86.03501354a10.81327819 10.81327819 0 0 0 2.79620267 3.88361481c8.94525947 9.99383547 17.92935506 19.96178015 26.92639604 29.92972483l22.52496593 25.03637017c3.11983724 3.46936257 2.36900503 2.99038341 7.01639744 3.04216495h66.07323337c0.94501294 0 1.99358894 0 3.11983724-0.28479842a8.95432123 8.95432123 0 0 0-2.79620266-4.45321166l-49.32190816-60.28664731-1.70879051-2.08420661a2.84798419 2.84798419 0 0 0-2.79620267-1.08741215l-19.49574638 1.66995437c-7.83195653 0.56959683-15.59918617 1.28159289-23.37936118 1.94180741l-22.95216355 1.89002587c-1.76057205 0.19418075-3.65059792 0.47897917-5.92898528 0.80261374h-0.09061769z m0 0" fill="#2c2c2c" p-id="9164"></path></svg>