<svg xmlns="http://www.w3.org/2000/svg" viewBox="0 0 1025 1024" version="1.1"><path d="M710.73910039 488.45502617c19.04761933-35.44973526 32.27513203-84.65608477-1.05820136-117.98941816-17.46031729-17.46031729-42.32804239-26.45502627-74.07407374-26.45502627-50.79365068 0-105.29100528 23.28042305-114.81481493 27.51322764-0.52910068 0-1.05820136 0.52910068-1.58730118 0.52910068 0-0.52910068 0.52910068-1.58730117 0.52910069-2.11640186 1.05820136-4.7619044 2.11640185-10.05291036 3.17460322-15.34391542l0.52910068-3.70370391c0-25.92592558-5.29100508-47.08994678-15.34391543-64.02116426-10.58201016-17.98941797-32.80423271-39.15343916-76.71957715-39.15343916-20.10581982 0-43.91534355 4.7619044-70.3703707 13.75661338C236.66502675 303.79894209 132.96132266 447.71428584 128.72851895 453.53439161 53.06714317 554.59259229 62.06185215 634.48677266 62.59095195 637.66137588 77.93486738 776.28571455 196.98248691 858.2962959 407.03539678 874.69841269c11.64021152 1.05820136 23.80952373 1.58730117 35.97883593 1.58730117 143.38624307 0 317.98941768-63.49206357 375.13227481-185.18518476 16.9312166-35.44973526 17.98941797-69.84127002 4.23280459-102.64550274C800.15708955 536.07407451 743.5433331 503.26984092 710.73910039 488.45502617zM779.52216904 672.58201045c-49.20634951 104.23280391-210.05290987 160.84656123-336.50793633 160.84656123-11.11111084 0-21.69312188-0.52910068-32.27513203-1.05820137-130.68783106-10.05291036-289.41798955-52.91005254-305.29100566-199.47089971 0-0.52910068-6.87830713-67.72486817 58.2010585-153.96825409 1.05820136-1.58730117 100.52910088-138.62433867 211.64021191-176.71957648 22.22222256-7.40740781 41.26984102-11.11111084 56.61375645-11.11111083 22.22222256 0 48.14814815 6.87830713 48.67724882 58.20105849-1.05820136 4.23280459-1.58730117 8.4656083-2.64550254 12.16931221-3.70370391 16.9312166-7.40740781 32.80423271 3.17460322 45.5026456 6.34920645 7.93650762 19.57671914 16.4021168 53.96825391 5.82010577l2.64550254-1.05820137c0.52910068 0 52.91005254-24.33862441 98.41269814-24.33862441 20.10581982 0 34.39153477 4.7619044 43.91534356 13.75661337 21.16402119 21.16402119-6.34920645 69.84127002-17.98941797 85.18518546l0 0c-8.4656083 11.64021152-3.17460322 28.57142901 10.58201016 32.80423271 24.33862441 7.93650762 91.00529122 39.68253984 111.11111104 86.24338594C792.22058193 626.02116435 791.16238057 648.24338604 779.52216904 672.58201045z" fill="#2c2c2c" p-id="8727"></path><path d="M932.96132247 266.23280411c-31.74603135-54.49735459-90.47619053-96.82539698-157.67195802-112.16931241-35.44973526-8.4656083-77.24867695-7.93650762-124.33862461 1.05820137 0 0-15.87301612 11.11111084-11.64021152 26.45502627 4.23280459 15.87301612 20.10581982 15.34391542 20.10581983 15.34391543 40.74074033-7.93650762 76.19047646-7.93650762 105.82010595-1.05820137 21.16402119 4.7619044 92.0634917 25.92592558 130.68783106 92.0634917 26.98412695 46.56084698 30.68783086 103.7037041 11.11111083 169.84127021-1.05820136 2.64550253-1.58730117 5.29100508-1.58730117 8.46560831 0 11.64021152 9.52380967 21.16402119 21.69312188 21.16402119l15.87301611 0 4.7619044-15.34391543C971.05656113 392.68783057 966.29465586 323.37566123 932.96132247 266.23280411z" fill="#2c2c2c" p-id="8728"></path><path d="M678.99306904 274.1693126c-11.64021152 2.11640185-19.57671914 13.22751357-16.9312166 24.86772509 2.11640185 11.64021152 13.22751357 19.57671914 24.8677251 16.93121661 0.52910068 0 51.85185205-8.4656083 80.95238086 18.51851865 18.51851865 16.9312166 25.39682578 46.03174628 21.16402119 86.77248663-1.05820136 11.64021152 7.40740781 22.22222256 19.04761934 23.80952372 1.05820136 0 1.58730117 0 2.64550253 0 10.58201016 0 20.10581982-7.93650762 21.1640212-19.04761934 5.82010576-54.49735459-5.29100508-95.7671956-34.39153477-122.75132255C751.47984161 260.94179902 682.16767227 273.64021191 678.99306904 274.1693126z" fill="#2c2c2c" p-id="8729"></path><path d="M393.8078832 560.41269805c-6.87830713 0-13.75661338 1.05820136-20.6349205 2.64550253-25.92592558 5.82010576-48.14814815 21.16402119-61.37566172 41.79894171-10.58201016 16.9312166-14.28571406 37.03703731-10.05291035 55.55555595 7.93650762 35.44973526 41.7989417 59.78835967 83.06878271 59.78835967 1.05820136 0 1.58730117 0 2.64550254 0l0 0c6.87830713 0 13.75661338-1.05820136 20.6349205-2.64550254 23.28042305-5.29100508 43.38624375-17.98941797 56.61375645-35.44973525 14.28571406-18.51851865 19.57671914-40.74074033 14.81481475-61.90476153C471.05656104 583.69312198 435.60682578 559.35449756 393.8078832 560.41269805zM434.54862441 658.82539708c-7.93650762 10.58201016-20.6349205 18.51851865-35.44973525 21.69312186-4.23280459 1.05820136-8.99470898 1.58730117-13.22751357 1.58730117-24.33862441 0.52910068-43.91534355-11.64021152-48.14814815-30.15873017-2.11640185-8.99470898 0-18.51851865 5.29100508-26.98412695 7.93650762-12.16931221 21.69312188-21.69312188 37.56613799-25.39682578 4.23280459-1.05820136 8.99470898-1.58730117 13.22751357-1.58730117 24.33862441-0.52910068 43.91534355 11.64021152 48.14814815 30.15873017C444.60153477 638.19047656 441.95603135 649.3015874 434.54862441 658.82539708z" fill="#2c2c2c" p-id="8730"></path><path d="M549.36343935 524.96296279c-32.80423271-19.04761933-75.66137578-29.10052881-120.6349207-28.04232831-9.52380967 0-19.04761933 1.05820136-28.571429 2.11640185-50.26455 6.34920645-96.29629628 25.39682578-129.62962968 53.43915322-35.44973526 30.15873018-52.38095273 67.19576748-47.61904747 104.76190459 4.23280459 33.86243408 25.92592558 64.02116426 61.37566172 84.65608477 31.21693154 17.98941797 71.42857119 28.04232832 114.28571425 28.04232831 2.11640185 0 4.23280459 0 6.87830713 1e-8 9.52380967 0 19.04761933-1.05820136 28.57142901-2.11640186 50.26455-6.34920645 96.29629628-25.39682578 129.62962969-53.43915323 35.44973526-30.15873018 52.38095273-67.19576748 47.61904745-104.76190458C606.50629648 575.75661347 584.81317461 545.5978833 549.36343935 524.96296279zM538.25232763 686.33862471c-27.51322763 23.28042305-66.6666668 39.15343916-109.52380985 44.44444423-8.4656083 1.05820136-16.4021168 1.58730117-24.8677251 1.58730117-38.09523779 1.05820136-74.07407373-7.40740781-101.05820069-22.75132235-24.8677251-14.81481474-40.21164052-34.92063458-42.85714306-56.61375645-3.17460322-24.8677251 9.52380967-50.26455 35.44973525-72.48677256 27.51322763-23.28042305 66.6666668-39.15343916 109.52380986-44.44444424 8.4656083-1.05820136 16.4021168-1.58730117 24.8677251-1.58730117 38.09523779-1.05820136 74.07407373 7.40740781 101.05820068 22.75132236 24.8677251 14.81481474 40.21164052 34.92063458 42.85714307 56.61375645C576.876667 638.71957636 564.17825411 664.64550283 538.25232763 686.33862471z" fill="#2c2c2c" p-id="8731"></path></svg>